<svg version="1.1" id="Layer_1" xmlns="http://www.w3.org/2000/svg" xmlns:xlink="http://www.w3.org/1999/xlink" x="0px" y="0px"
	 width="100%" viewBox="0 0 677 369" enable-background="new 0 0 677 369" xml:space="preserve">
<path fill="#000000" opacity="1.000000" stroke="none" 
	d="
M503.000000,370.000000 
	C335.373260,370.000000 168.246521,370.000000 1.059888,370.000000 
	C1.059888,247.069321 1.059888,124.138618 1.059888,1.103953 
	C226.543411,1.103953 452.086884,1.103953 677.815186,1.103953 
	C677.815186,123.999771 677.815186,246.999863 677.815186,370.000000 
	C619.805237,370.000000 561.652588,370.000000 503.000000,370.000000 
M299.990417,264.959595 
	C299.990417,264.959595 300.119843,265.001465 300.470306,265.538055 
	C301.306641,265.620392 302.142944,265.702728 303.914001,265.886719 
	C311.612701,265.846497 319.311432,265.806305 327.609558,265.891571 
	C328.117432,265.621704 328.625305,265.351868 329.534637,264.883728 
	C329.616943,264.759186 329.791809,264.551147 329.766754,264.523346 
	C329.576874,264.312653 329.347748,264.137268 329.066895,263.207367 
	C330.356842,258.634155 329.368988,257.168610 324.668579,257.058502 
	C320.238495,256.954742 315.804047,257.036224 310.908722,257.036224 
	C310.908722,247.997147 310.909088,239.592712 310.908539,231.188263 
	C310.908295,227.472473 309.168182,225.853775 305.348114,225.991974 
	C301.760315,226.121765 299.118256,226.815826 299.155975,231.169342 
	C299.250763,242.111603 299.266937,253.054550 299.321777,264.412170 
	C299.460327,264.689484 299.684570,264.826630 299.990417,264.959595 
M289.543304,287.508850 
	C288.702667,287.404999 287.862000,287.301147 286.350250,287.108063 
	C285.901245,287.137817 285.452271,287.167572 284.501129,287.123505 
	C284.336975,287.164520 284.172852,287.205505 283.285767,287.151611 
	C282.561005,287.080383 281.836212,287.009186 281.113739,286.158325 
	C281.113464,285.118591 281.113220,284.078888 281.831512,282.905609 
	C282.558075,282.835297 283.284668,282.764984 284.497986,282.793579 
	C284.497986,282.793579 284.979279,282.670807 285.816010,282.769653 
	C287.216766,282.725403 288.617493,282.681152 290.686920,282.776794 
	C293.850769,281.456329 293.720856,279.955200 290.019501,278.158630 
	C289.359192,278.134949 288.699066,278.096649 288.038574,278.089752 
	C275.115875,277.954559 275.115875,277.955353 275.092804,290.654724 
	C275.071869,302.177948 275.071869,302.177948 287.780945,301.985809 
	C290.268402,301.993622 293.266724,302.166504 292.697418,298.580841 
	C292.534241,297.553070 289.682068,296.551483 287.945465,296.274689 
	C285.722626,295.920410 283.380951,296.311493 280.428070,295.893982 
	C280.273407,294.556152 280.118713,293.218292 280.832001,291.862518 
	C283.140289,291.973969 285.447723,292.150543 287.757080,292.181274 
	C291.063934,292.225342 291.795319,290.781250 289.996887,287.991577 
	C289.996887,287.991577 289.968506,288.009583 289.543304,287.508850 
M401.021729,112.972252 
	C395.683136,112.979362 390.344574,112.986473 384.570343,112.462456 
	C383.663879,111.658180 382.757446,110.853912 381.781250,109.987762 
	C383.579285,107.486687 385.203766,105.227058 387.236572,102.382721 
	C395.142700,94.162064 403.048828,85.941406 411.667908,77.926201 
	C412.967407,76.377136 414.878540,74.983063 415.325806,73.218048 
	C415.574524,72.236504 413.543671,69.808723 412.244415,69.556534 
	C411.031921,69.321182 409.428223,71.101204 407.413971,72.417480 
	C406.882874,77.211708 402.276031,77.633339 399.306824,79.495811 
	C392.827240,83.560265 386.270660,87.990700 379.111298,90.332542 
	C373.075012,92.307022 366.135559,91.458847 359.616150,92.074989 
	C358.454834,92.184746 357.392761,93.344841 356.117188,94.662384 
	C356.177521,95.097000 356.237854,95.531616 356.117035,96.519440 
	C356.086212,96.711014 356.055389,96.902588 355.431854,97.421455 
	C349.262878,101.606483 343.093872,105.791512 336.995575,109.208313 
	C337.366241,107.672951 337.736908,106.137589 338.085724,104.692726 
	C336.468109,104.015778 335.237122,103.500618 334.474792,102.476440 
	C343.741516,94.668205 354.377350,89.252007 365.560852,84.840378 
	C368.540100,83.665123 371.767914,83.102158 374.701752,81.839973 
	C375.640350,81.436150 375.999512,79.685616 376.623810,78.551247 
	C375.562012,78.201019 374.395142,77.380211 373.458282,77.589439 
	C370.727875,78.199196 368.138794,79.456848 365.403961,80.028091 
	C360.764648,80.997147 356.413239,84.095016 350.845612,81.490753 
	C343.438416,79.284264 336.053436,77.561508 328.170624,79.100204 
	C319.742767,80.745285 311.697815,83.044960 304.479126,87.957611 
	C302.212738,89.499977 299.318939,90.640213 296.612457,90.892334 
	C292.708527,91.255997 291.115326,92.625153 290.848785,96.663254 
	C290.667297,99.412643 289.219666,102.154060 287.999878,104.739410 
	C286.602753,107.700577 284.674164,110.409424 283.252319,113.360779 
	C279.248322,121.671921 278.094574,130.586746 277.402313,139.849564 
	C273.898193,144.517288 269.605316,148.793503 267.053894,153.934067 
	C261.714539,164.691757 261.889954,176.242233 266.809448,186.959198 
	C271.565735,197.320572 279.166992,205.307724 290.647064,209.152115 
	C298.148041,211.664001 305.660126,212.909927 312.983398,210.296753 
	C319.632355,207.924210 325.742737,204.042343 332.747040,200.711380 
	C334.167725,200.066879 335.588409,199.422394 337.809875,198.920563 
	C338.890289,198.877533 339.970673,198.834488 341.833527,198.920547 
	C343.261414,198.627106 344.689331,198.333664 346.929321,197.983826 
	C357.061005,196.902054 364.791565,191.165466 372.414703,185.076141 
	C374.329163,183.546890 377.014496,183.021423 379.113434,181.673309 
	C381.149384,180.365677 384.649017,178.314972 384.452728,177.073166 
	C383.567413,171.471924 386.296478,167.051895 387.941345,162.257736 
	C391.680878,151.358414 394.410706,140.344147 391.635010,128.139191 
	C392.414978,126.401482 393.194916,124.663773 394.684967,122.991158 
	C395.666565,122.385956 396.648163,121.780754 397.842346,121.239952 
	C397.842346,121.239952 397.978577,121.064499 398.780518,121.029793 
	C401.076385,120.247215 403.327515,119.048088 405.680328,118.795280 
	C408.201782,118.524330 410.670624,118.447838 410.500916,115.314415 
	C410.408813,113.613609 409.401215,110.997444 408.159058,110.535599 
	C405.942230,109.711334 402.863739,109.300797 401.021729,112.972252 
M194.743805,255.244507 
	C192.694580,254.394760 190.884277,253.033890 189.106613,256.139221 
	C186.062744,261.456451 187.388092,264.119843 194.681854,265.219025 
	C200.707657,267.825134 206.669678,267.457001 212.717804,265.129669 
	C217.372498,263.338531 220.750977,258.996002 220.839142,254.095291 
	C220.923187,249.423843 217.654724,244.862717 212.768997,243.319077 
	C209.174698,242.183456 205.406067,241.589127 201.836533,240.391663 
	C200.683289,240.004791 199.915695,238.468307 198.971695,237.457687 
	C200.079681,236.638199 201.218369,235.089615 202.289978,235.134720 
	C205.624893,235.275085 208.928604,236.062332 212.256454,236.509186 
	C213.660614,236.697739 215.094833,236.662659 216.607376,236.733551 
	C216.883972,233.197556 221.297546,229.377045 215.264557,227.463791 
	C210.148819,225.841415 204.973068,224.663208 199.415375,225.980423 
	C192.458023,227.629364 188.549637,231.162521 188.136322,237.151169 
	C187.701782,243.446899 190.395126,247.648361 196.487228,249.522278 
	C199.121964,250.332703 201.977631,250.393784 204.690689,250.988129 
	C208.410950,251.803146 208.937546,252.751404 208.144928,257.541626 
	C203.824036,256.984161 199.466110,256.421967 194.743805,255.244507 
M472.251404,225.976532 
	C467.177612,225.976532 462.103851,225.976532 456.674500,225.976532 
	C456.674500,239.650543 456.674500,252.529648 456.674500,265.625000 
	C460.018768,265.625000 464.203003,266.844391 465.948883,265.302612 
	C467.932434,263.550964 467.735657,259.330322 468.467865,256.261963 
	C471.984924,255.541550 475.083618,255.494385 476.697174,259.138702 
	C479.828766,266.211823 482.017761,267.048981 492.114807,264.955475 
	C490.147064,262.201630 488.513336,259.597656 486.555634,257.265656 
	C484.642212,254.986404 484.110870,253.161255 486.726379,250.992752 
	C494.401886,244.628998 492.827362,232.190613 483.638245,228.174393 
	C480.444702,226.778610 476.688049,226.671326 472.251404,225.976532 
M443.639526,252.892258 
	C444.232208,252.315887 444.797699,251.708054 445.421967,251.168243 
	C449.763733,247.414093 450.555664,242.373917 449.685150,237.228210 
	C448.701080,231.411423 444.448395,227.650238 438.505981,227.090256 
	C431.944092,226.471878 425.330566,226.209961 418.741730,226.241531 
	C417.529633,226.247314 415.312256,228.365250 415.279449,229.555649 
	C414.977325,240.523590 414.959320,251.503708 415.159821,262.474762 
	C415.180939,263.631073 416.993958,265.535828 418.218445,265.758545 
	C424.786285,266.953247 425.739655,266.051147 426.000397,259.547577 
	C426.039246,258.579132 426.123291,257.612488 426.185699,256.656036 
	C430.599884,254.870499 433.311066,256.265442 435.840057,259.981201 
	C440.403534,266.686279 442.611328,267.224030 450.927002,265.049683 
	C448.335938,261.130035 445.810089,257.309082 443.639526,252.892258 
M274.839172,235.009872 
	C279.670074,234.988281 284.502808,234.876648 289.331238,234.975677 
	C292.745270,235.045670 292.997925,232.989273 292.945129,230.392090 
	C292.892487,227.800629 292.579712,225.923752 289.148285,226.013016 
	C281.490784,226.212219 273.818054,225.920837 266.168488,226.238235 
	C264.852997,226.292816 262.543793,228.340561 262.517120,229.509232 
	C262.245087,241.427078 262.350769,253.353561 262.350769,265.246002 
	C263.116760,265.508698 263.576172,265.801392 264.037567,265.804504 
	C272.365814,265.860535 280.694977,265.827759 289.022339,265.938019 
	C292.117981,265.979034 293.994324,265.446198 293.969116,261.582733 
	C293.943115,257.587555 292.120270,256.866882 288.722076,256.991241 
	C283.612549,257.178223 278.491150,257.039917 273.279602,257.039917 
	C273.279602,254.381454 273.279602,252.351410 273.279602,249.793549 
	C279.255890,249.793549 284.839447,249.793549 290.346619,249.793549 
	C291.314178,241.029190 291.314178,241.031036 283.420868,241.042847 
	C279.999817,241.047974 276.578735,241.043716 272.277374,241.043716 
	C273.004120,238.440430 273.461823,236.800842 274.839172,235.009872 
M367.392456,265.765076 
	C368.054688,265.812622 368.716766,265.862976 369.379211,265.907288 
	C374.274658,266.234741 379.138641,266.623352 380.127625,259.833527 
	C380.231323,259.121460 381.820465,258.158966 382.757568,258.115662 
	C386.905365,257.923920 391.071289,257.920929 395.219818,258.099976 
	C396.171112,258.141022 397.427582,258.953766 397.953033,259.784760 
	C402.327393,266.702332 403.021271,267.046021 411.088989,265.088562 
	C410.635376,263.222168 410.465485,261.230469 409.683472,259.518372 
	C405.117706,249.521988 400.268860,239.652893 395.823425,229.604645 
	C394.270386,226.094299 391.853882,225.925690 388.677521,225.990204 
	C385.337982,226.058060 383.004974,227.050018 381.621124,230.263535 
	C378.357635,237.841858 374.886841,245.330902 371.620941,252.908234 
	C369.847961,257.021759 368.322723,261.242065 367.392456,265.765076 
M251.194809,226.065918 
	C243.364029,226.063004 235.532700,226.113785 227.702728,226.032745 
	C224.196091,225.996445 222.039154,226.902069 222.018143,231.038925 
	C221.997101,235.185089 224.562332,235.017136 227.342484,234.976257 
	C229.444656,234.945343 231.547653,234.970139 234.186844,234.970139 
	C234.186844,243.598114 234.448654,251.571014 234.090317,259.515930 
	C233.869232,264.418091 235.148697,266.326080 240.427277,266.103394 
	C244.602661,265.927216 245.941193,264.731049 245.828537,260.639618 
	C245.596802,252.221924 245.758850,243.793411 245.758850,234.956451 
	C248.393860,234.956451 250.200760,234.869522 251.996170,234.975937 
	C255.017532,235.154968 258.002380,235.043716 257.899567,231.029724 
	C257.811127,227.575790 255.943375,225.500305 251.194809,226.065918 
M357.398956,265.898438 
	C359.823334,265.898438 362.247711,265.898438 364.573151,265.898438 
	C365.511230,257.473145 365.152435,257.048492 357.839447,257.032593 
	C355.511902,257.027557 353.153137,256.779053 350.863251,257.070770 
	C345.866089,257.707397 344.585846,255.455856 344.804260,250.805130 
	C345.131348,243.838257 344.783997,236.842468 344.905243,229.862137 
	C344.977844,225.680649 342.212311,226.010193 339.497528,226.082794 
	C336.943604,226.151062 333.989624,225.307266 334.046265,229.708282 
	C334.183105,240.344315 334.158691,250.984512 334.022369,261.620758 
	C333.980133,264.919891 335.324768,266.020355 338.472778,265.948364 
	C344.454773,265.811584 350.442017,265.902954 357.398956,265.898438 
M346.750824,299.001282 
	C348.979340,292.286530 351.207855,285.571747 353.696686,278.072571 
	C344.926422,278.402679 346.978088,286.359985 342.832733,290.087036 
	C341.800507,287.162567 341.216034,284.618683 340.018494,282.406677 
	C339.127991,280.761780 337.443024,279.546997 336.111908,278.140625 
	C334.770081,279.551300 332.976868,280.748566 332.186584,282.420044 
	C330.815674,285.319550 330.065308,288.512512 328.776001,292.429047 
	C327.334045,288.084747 326.135284,284.837250 325.183899,281.518799 
	C323.865692,276.921112 321.318115,277.492706 318.350983,279.268799 
	C320.461304,285.263245 322.279633,291.010223 324.549713,296.572876 
	C325.387268,298.625153 327.289368,300.242950 328.705902,302.058929 
	C330.135132,300.184845 331.856354,298.460724 332.916168,296.396912 
	C334.112457,294.067291 334.713989,291.432251 335.996368,287.701965 
	C337.701233,292.147888 338.840118,295.187012 340.031067,298.205627 
	C341.450226,301.802643 343.503876,302.815216 346.750824,299.001282 
M261.975281,288.673065 
	C261.266235,288.589569 260.234558,288.776917 259.900360,288.378815 
	C257.678528,285.731934 255.747910,282.829498 253.417313,280.290375 
	C252.440002,279.225647 250.602264,278.167480 249.373367,278.377838 
	C248.475693,278.531494 247.391174,280.738708 247.328964,282.074249 
	C247.081543,287.387024 247.017059,292.727539 247.320129,298.032928 
	C247.393967,299.325470 249.123169,300.523407 250.091248,301.764862 
	C251.006760,300.472504 252.487061,299.272125 252.715698,297.867950 
	C253.141235,295.254333 252.837784,292.522034 252.837784,289.608398 
	C258.248138,293.242126 260.132812,300.296356 267.858398,300.950409 
	C267.858398,293.843445 267.972717,287.537903 267.745880,281.244659 
	C267.708069,280.195923 266.185852,279.200653 265.349548,278.180695 
	C264.588074,279.178009 263.445435,280.073578 263.146210,281.194336 
	C262.563354,283.377625 262.452942,285.687012 261.975281,288.673065 
M356.072205,292.072296 
	C358.284363,299.882812 366.541992,303.807983 374.024902,300.585510 
	C378.168762,298.800995 381.020447,295.526886 380.870605,290.685730 
	C380.723022,285.917877 379.685944,280.891663 374.738403,279.179443 
	C365.348694,275.929932 356.607117,277.965668 356.072205,292.072296 
M393.510132,278.052155 
	C385.727386,278.100952 385.643097,278.104645 385.974609,285.684814 
	C386.152710,289.756042 386.794312,293.805817 387.014069,297.876740 
	C387.221039,301.710999 389.220947,301.128601 391.544495,300.291748 
	C391.845306,298.411896 392.099457,296.823730 392.524017,294.170715 
	C394.783722,295.330780 396.608124,296.032867 398.147278,297.133759 
	C399.320770,297.973114 399.957794,299.594971 401.158875,300.353333 
	C402.177277,300.996338 403.661560,300.901489 404.939667,301.133148 
	C404.878967,299.948883 405.293854,298.310059 404.673370,297.660828 
	C402.278198,295.154755 403.459045,293.193695 404.585602,290.580048 
	C405.501831,288.454285 405.604034,285.471252 404.885620,283.250671 
	C403.289185,278.316162 399.065704,277.498230 393.510132,278.052155 
M412.268799,278.845673 
	C411.859894,279.559387 411.068024,280.291809 411.101898,280.983856 
	C411.407043,287.216644 411.783051,293.449280 412.363129,299.660950 
	C412.431580,300.393738 414.222504,301.712524 414.576965,301.528809 
	C415.559967,301.019287 416.471344,299.975830 416.928284,298.932037 
	C417.799591,296.941925 418.335693,294.805023 419.315125,291.793762 
	C422.847168,295.618256 425.175995,298.375610 427.800690,300.814484 
	C428.448059,301.415985 430.058044,300.981537 431.225525,301.023346 
	C431.154053,299.869690 431.460663,298.481995 430.924530,297.616028 
	C430.073029,296.240601 428.585114,295.277771 427.495972,294.027557 
	C423.548096,289.496002 423.924622,287.176239 428.749573,283.388245 
	C430.133118,282.302032 431.040070,280.608673 432.495422,278.778992 
	C424.356445,276.223480 423.263763,284.725861 418.139252,285.837189 
	C417.098694,282.988495 419.797241,277.366455 412.268799,278.845673 
M302.956573,296.068146 
	C303.620117,298.035065 304.283661,300.002014 305.276001,302.943573 
	C312.145782,296.533417 306.733429,289.140564 309.147888,284.440430 
	C312.222290,282.765533 314.534088,281.506104 316.845886,280.246674 
	C316.613342,279.638000 316.380798,279.029358 316.148285,278.420685 
	C309.223297,278.187683 302.263245,277.212311 295.431396,278.950928 
	C295.324036,279.622467 295.216705,280.294006 295.109344,280.965546 
	C297.487427,281.887787 299.865509,282.810028 302.974091,284.015594 
	C302.974091,287.261719 302.974091,291.214661 302.956573,296.068146 
M387.485352,74.983788 
	C386.594238,74.689743 385.608704,74.006561 384.834534,74.194427 
	C383.722046,74.464394 382.599335,75.218628 381.817444,76.073792 
	C381.490173,76.431732 381.840973,78.144089 382.202637,78.262039 
	C383.365936,78.641449 384.879974,78.999985 385.874481,78.538490 
	C386.820923,78.099281 387.284729,76.619957 387.485352,74.983788 
z"/>
<path fill="#3456A1" opacity="1.000000" stroke="none" 
	d="
M472.719971,225.976044 
	C476.688049,226.671326 480.444702,226.778610 483.638245,228.174393 
	C492.827362,232.190613 494.401886,244.628998 486.726379,250.992752 
	C484.110870,253.161255 484.642212,254.986404 486.555634,257.265656 
	C488.513336,259.597656 490.147064,262.201630 492.114807,264.955475 
	C482.017761,267.048981 479.828766,266.211823 476.697174,259.138702 
	C475.083618,255.494385 471.984924,255.541550 468.467865,256.261963 
	C467.735657,259.330322 467.932434,263.550964 465.948883,265.302612 
	C464.203003,266.844391 460.018768,265.625000 456.674500,265.625000 
	C456.674500,252.529648 456.674500,239.650543 456.674500,225.976532 
	C462.103851,225.976532 467.177612,225.976532 472.719971,225.976044 
M470.728119,234.941452 
	C466.254852,236.559845 466.079498,237.574203 469.002899,246.421112 
	C471.434021,246.064911 474.316345,246.299286 476.415619,245.129044 
	C478.122009,244.177811 480.042114,241.345825 479.762634,239.706848 
	C479.457764,237.919113 476.857269,236.357758 474.995789,235.078491 
	C474.205719,234.535522 472.749420,234.962036 470.728119,234.941452 
z"/>
<path fill="#3457A4" opacity="1.000000" stroke="none" 
	d="
M443.461884,253.190186 
	C445.810089,257.309082 448.335938,261.130035 450.927002,265.049683 
	C442.611328,267.224030 440.403534,266.686279 435.840057,259.981201 
	C433.311066,256.265442 430.599884,254.870499 426.185699,256.656036 
	C426.123291,257.612488 426.039246,258.579132 426.000397,259.547577 
	C425.739655,266.051147 424.786285,266.953247 418.218445,265.758545 
	C416.993958,265.535828 415.180939,263.631073 415.159821,262.474762 
	C414.959320,251.503708 414.977325,240.523590 415.279449,229.555649 
	C415.312256,228.365250 417.529633,226.247314 418.741730,226.241531 
	C425.330566,226.209961 431.944092,226.471878 438.505981,227.090256 
	C444.448395,227.650238 448.701080,231.411423 449.685150,237.228210 
	C450.555664,242.373917 449.763733,247.414093 445.421967,251.168243 
	C444.797699,251.708054 444.232208,252.315887 443.461884,253.190186 
M434.808929,235.355576 
	C431.946350,235.355576 429.083771,235.355576 426.275879,235.355576 
	C426.275879,239.041931 426.275879,242.280045 426.275879,246.508102 
	C429.963715,245.944519 433.486786,245.984207 436.437775,244.704651 
	C437.855377,244.089981 438.684174,241.013397 438.808014,238.992172 
	C438.868469,238.005646 436.703186,236.882721 434.808929,235.355576 
z"/>
<path fill="#3457A2" opacity="1.000000" stroke="none" 
	d="
M274.379333,235.085571 
	C273.461823,236.800842 273.004120,238.440430 272.277374,241.043716 
	C276.578735,241.043716 279.999817,241.047974 283.420868,241.042847 
	C291.314178,241.031036 291.314178,241.029190 290.346619,249.793549 
	C284.839447,249.793549 279.255890,249.793549 273.279602,249.793549 
	C273.279602,252.351410 273.279602,254.381454 273.279602,257.039917 
	C278.491150,257.039917 283.612549,257.178223 288.722076,256.991241 
	C292.120270,256.866882 293.943115,257.587555 293.969116,261.582733 
	C293.994324,265.446198 292.117981,265.979034 289.022339,265.938019 
	C280.694977,265.827759 272.365814,265.860535 264.037567,265.804504 
	C263.576172,265.801392 263.116760,265.508698 262.350769,265.246002 
	C262.350769,253.353561 262.245087,241.427078 262.517120,229.509232 
	C262.543793,228.340561 264.852997,226.292816 266.168488,226.238235 
	C273.818054,225.920837 281.490784,226.212219 289.148285,226.013016 
	C292.579712,225.923752 292.892487,227.800629 292.945129,230.392090 
	C292.997925,232.989273 292.745270,235.045670 289.331238,234.975677 
	C284.502808,234.876648 279.670074,234.988281 274.379333,235.085571 
z"/>
<path fill="#3456A1" opacity="1.000000" stroke="none" 
	d="
M367.039093,265.589630 
	C368.322723,261.242065 369.847961,257.021759 371.620941,252.908234 
	C374.886841,245.330902 378.357635,237.841858 381.621124,230.263535 
	C383.004974,227.050018 385.337982,226.058060 388.677521,225.990204 
	C391.853882,225.925690 394.270386,226.094299 395.823425,229.604645 
	C400.268860,239.652893 405.117706,249.521988 409.683472,259.518372 
	C410.465485,261.230469 410.635376,263.222168 411.088989,265.088562 
	C403.021271,267.046021 402.327393,266.702332 397.953033,259.784760 
	C397.427582,258.953766 396.171112,258.141022 395.219818,258.099976 
	C391.071289,257.920929 386.905365,257.923920 382.757568,258.115662 
	C381.820465,258.158966 380.231323,259.121460 380.127625,259.833527 
	C379.138641,266.623352 374.274658,266.234741 369.379211,265.907288 
	C368.716766,265.862976 368.054688,265.812622 367.039093,265.589630 
M392.720520,247.106735 
	C391.571991,244.742859 390.423431,242.378967 388.914520,239.273422 
	C387.323761,243.073898 386.221924,245.706299 384.658264,249.442001 
	C387.925415,248.825851 390.401367,248.358917 392.720520,247.106735 
z"/>
<path fill="#3456A1" opacity="1.000000" stroke="none" 
	d="
M195.108200,255.859741 
	C199.466110,256.421967 203.824036,256.984161 208.144928,257.541626 
	C208.937546,252.751404 208.410950,251.803146 204.690689,250.988129 
	C201.977631,250.393784 199.121964,250.332703 196.487228,249.522278 
	C190.395126,247.648361 187.701782,243.446899 188.136322,237.151169 
	C188.549637,231.162521 192.458023,227.629364 199.415375,225.980423 
	C204.973068,224.663208 210.148819,225.841415 215.264557,227.463791 
	C221.297546,229.377045 216.883972,233.197556 216.607376,236.733551 
	C215.094833,236.662659 213.660614,236.697739 212.256454,236.509186 
	C208.928604,236.062332 205.624893,235.275085 202.289978,235.134720 
	C201.218369,235.089615 200.079681,236.638199 198.971695,237.457703 
	C199.915695,238.468307 200.683289,240.004791 201.836533,240.391663 
	C205.406067,241.589127 209.174698,242.183456 212.768997,243.319077 
	C217.654724,244.862717 220.923187,249.423843 220.839142,254.095291 
	C220.750977,258.996002 217.372498,263.338531 212.717804,265.129669 
	C206.669678,267.457001 200.707657,267.825134 194.091400,264.797546 
	C188.687164,259.058868 188.765717,258.642700 195.108200,255.859741 
z"/>
<path fill="#405A95" opacity="1.000000" stroke="none" 
	d="
M278.012726,139.697632 
	C278.094574,130.586746 279.248322,121.671921 283.252319,113.360779 
	C284.674164,110.409424 286.602753,107.700577 287.999878,104.739410 
	C289.219666,102.154060 290.667297,99.412643 290.848785,96.663254 
	C291.115326,92.625153 292.708527,91.255997 296.612457,90.892334 
	C299.318939,90.640213 302.212738,89.499977 304.479126,87.957611 
	C311.697815,83.044960 319.742767,80.745285 328.170624,79.100204 
	C336.053436,77.561508 343.438416,79.284264 350.930969,82.103310 
	C350.359863,83.605957 349.703430,84.496048 348.668915,85.390495 
	C347.346375,85.570229 346.249817,86.149742 345.480408,85.860100 
	C334.716583,81.808060 324.421509,83.672089 314.667938,88.765182 
	C310.417816,90.984489 304.939880,92.155876 304.207520,98.813889 
	C303.753937,102.937622 300.385406,104.994179 295.917999,104.884392 
	C294.851562,104.858192 293.246002,105.838791 292.750061,106.800621 
	C288.348602,115.336693 282.903595,123.582588 283.824463,134.145996 
	C282.514008,136.687698 280.302307,139.104340 284.095825,141.436066 
	C283.185699,149.556412 285.151520,156.546021 288.994324,163.268188 
	C288.931915,163.458649 288.850006,163.851044 288.442566,163.864563 
	C286.417358,163.966049 284.799561,164.054016 282.817322,163.982513 
	C280.938446,158.181427 279.424072,152.539810 277.974182,146.545013 
	C278.029999,144.027100 278.021362,141.862366 278.012726,139.697632 
M300.956635,100.374290 
	C301.811646,97.447342 304.393433,93.724510 299.037567,92.893150 
	C297.128784,92.596863 294.496796,94.310738 292.904907,95.844116 
	C292.207153,96.516190 292.856293,100.194351 293.646698,100.489166 
	C295.670532,101.244041 298.116577,100.866997 300.956635,100.374290 
z"/>
<path fill="#3457A0" opacity="1.000000" stroke="none" 
	d="
M251.652496,226.066940 
	C255.943375,225.500305 257.811127,227.575790 257.899567,231.029724 
	C258.002380,235.043716 255.017532,235.154968 251.996170,234.975937 
	C250.200760,234.869522 248.393860,234.956451 245.758850,234.956451 
	C245.758850,243.793411 245.596802,252.221924 245.828537,260.639618 
	C245.941193,264.731049 244.602661,265.927216 240.427277,266.103394 
	C235.148697,266.326080 233.869232,264.418091 234.090317,259.515930 
	C234.448654,251.571014 234.186844,243.598114 234.186844,234.970139 
	C231.547653,234.970139 229.444656,234.945343 227.342484,234.976257 
	C224.562332,235.017136 221.997101,235.185089 222.018143,231.038925 
	C222.039154,226.902069 224.196091,225.996445 227.702728,226.032745 
	C235.532700,226.113785 243.364029,226.063004 251.652496,226.066940 
z"/>
<path fill="#BBA993" opacity="1.000000" stroke="none" 
	d="
M277.707520,139.773590 
	C278.021362,141.862366 278.029999,144.027100 277.653870,146.688110 
	C277.161346,147.496216 277.142548,147.896561 276.933044,148.107224 
	C267.025665,158.069885 265.990387,177.205856 273.740631,189.037506 
	C284.154572,204.935562 298.783905,209.654495 316.807861,204.411438 
	C319.469482,203.637192 321.575836,200.954102 324.313354,199.012238 
	C327.342346,198.813919 330.839508,195.568466 332.090576,200.825867 
	C325.742737,204.042343 319.632355,207.924210 312.983398,210.296753 
	C305.660126,212.909927 298.148041,211.664001 290.647064,209.152115 
	C279.166992,205.307724 271.565735,197.320572 266.809448,186.959198 
	C261.889954,176.242233 261.714539,164.691757 267.053894,153.934067 
	C269.605316,148.793503 273.898193,144.517288 277.707520,139.773590 
z"/>
<path fill="#BBA993" opacity="1.000000" stroke="none" 
	d="
M284.136108,140.974915 
	C280.302307,139.104340 282.514008,136.687698 284.187683,134.217422 
	C288.570862,132.915237 292.237427,131.345093 296.057861,130.728683 
	C302.441010,129.698776 303.904785,123.758926 307.643829,120.105515 
	C320.172394,107.863792 332.343933,95.171440 348.496796,87.442238 
	C348.912903,87.243126 348.873810,86.092834 349.046997,85.386139 
	C349.703430,84.496048 350.359863,83.605957 351.175659,82.420303 
	C356.413239,84.095016 360.764648,80.997147 365.403961,80.028091 
	C368.138794,79.456848 370.727875,78.199196 373.458282,77.589439 
	C374.395142,77.380211 375.562012,78.201019 376.623810,78.551247 
	C375.999512,79.685616 375.640350,81.436150 374.701752,81.839973 
	C371.767914,83.102158 368.540100,83.665123 365.560852,84.840378 
	C354.377350,89.252007 343.741516,94.668205 334.170349,102.482353 
	C333.552368,102.203705 333.238800,101.919144 332.925262,101.634567 
	C332.781342,102.019348 332.576691,102.393433 332.506622,102.791237 
	C332.379181,103.514656 332.331757,104.252167 331.869507,104.889847 
	C324.122894,110.356445 316.911041,116.072060 311.921936,124.422760 
	C310.784058,125.600662 309.496826,126.296471 308.712128,127.362289 
	C308.324493,127.888824 308.863922,129.097916 308.789246,130.283356 
	C303.592804,132.416077 298.531281,134.119812 293.610168,136.161850 
	C290.348083,137.515457 287.287109,139.353653 284.136108,140.974915 
z"/>
<path fill="#39589A" opacity="1.000000" stroke="none" 
	d="
M341.051086,198.791443 
	C339.970673,198.834488 338.890289,198.877533 337.438202,198.514160 
	C338.383575,196.828217 339.700592,195.548660 341.399200,194.162781 
	C349.038208,191.166824 356.540192,188.749619 363.443481,185.175934 
	C366.603180,183.540222 370.385071,179.813232 370.703796,176.708145 
	C371.266571,171.224991 372.597809,167.962753 378.281586,167.159439 
	C379.064819,167.048737 380.003082,166.180817 380.392853,165.419418 
	C386.001526,154.463486 388.871277,143.029556 386.436707,130.528198 
	C388.459137,129.818314 390.185425,129.263428 391.911743,128.708542 
	C394.410706,140.344147 391.680878,151.358414 387.941345,162.257736 
	C386.296478,167.051895 383.567413,171.471924 384.452728,177.073166 
	C384.649017,178.314972 381.149384,180.365677 379.113434,181.673309 
	C377.014496,183.021423 374.329163,183.546890 372.414703,185.076141 
	C364.791565,191.165466 357.061005,196.902054 346.143494,198.000793 
	C343.922150,198.275650 342.486603,198.533539 341.051086,198.791443 
z"/>
<path fill="#3457A2" opacity="1.000000" stroke="none" 
	d="
M356.913025,265.898987 
	C350.442017,265.902954 344.454773,265.811584 338.472778,265.948364 
	C335.324768,266.020355 333.980133,264.919891 334.022369,261.620758 
	C334.158691,250.984512 334.183105,240.344315 334.046265,229.708282 
	C333.989624,225.307266 336.943604,226.151062 339.497528,226.082794 
	C342.212311,226.010193 344.977844,225.680649 344.905243,229.862137 
	C344.783997,236.842468 345.131348,243.838257 344.804260,250.805130 
	C344.585846,255.455856 345.866089,257.707397 350.863251,257.070770 
	C353.153137,256.779053 355.511902,257.027557 357.839447,257.032593 
	C365.152435,257.048492 365.511230,257.473145 364.573151,265.898438 
	C362.247711,265.898438 359.823334,265.898438 356.913025,265.898987 
z"/>
<path fill="#BBA993" opacity="1.000000" stroke="none" 
	d="
M391.773376,128.423859 
	C390.185425,129.263428 388.459137,129.818314 386.222931,130.269379 
	C384.368408,130.624588 382.704834,130.727661 381.730804,131.600357 
	C375.342163,137.324326 368.536407,142.721481 362.933044,149.154114 
	C351.601837,162.162292 344.006134,177.387299 338.601715,193.987076 
	C335.999268,194.656174 333.453735,197.211807 332.245911,192.890152 
	C333.072876,191.862839 333.781067,191.113937 334.131683,190.224136 
	C337.434784,181.841278 340.676880,173.434372 344.278198,164.957108 
	C346.391968,162.291290 350.967682,161.266678 349.491791,156.901978 
	C350.729980,156.304291 351.756165,155.585770 352.577393,154.681183 
	C356.656158,150.188446 360.848755,145.778748 364.593964,141.019272 
	C365.419373,139.970291 364.514221,137.618332 364.545898,135.868912 
	C364.575989,134.207932 364.789337,132.550278 364.922089,130.891159 
	C366.552856,131.278961 368.232269,131.535980 369.791565,132.115982 
	C370.458588,132.364090 370.875305,133.285095 371.309723,133.788971 
	C375.715790,130.554474 380.072571,127.396294 384.384247,124.177773 
	C387.587250,121.786835 390.731842,119.317612 393.970459,117.190392 
	C394.910950,117.545959 395.851074,117.822708 396.639862,117.588921 
	C397.799835,117.245094 398.851746,116.536850 400.104187,116.188492 
	C400.517365,116.614967 400.776093,116.836792 400.871826,117.328682 
	C399.798737,118.753998 398.888641,119.909248 397.978577,121.064499 
	C397.978577,121.064499 397.842346,121.239952 397.352112,121.184174 
	C395.899536,121.727615 394.937225,122.326836 393.974884,122.926064 
	C393.194916,124.663773 392.414978,126.401482 391.773376,128.423859 
z"/>
<path fill="#3456A1" opacity="1.000000" stroke="none" 
	d="
M299.314636,263.997223 
	C299.266937,253.054550 299.250763,242.111603 299.155975,231.169342 
	C299.118256,226.815826 301.760315,226.121765 305.348114,225.991974 
	C309.168182,225.853775 310.908295,227.472473 310.908539,231.188263 
	C310.909088,239.592712 310.908722,247.997147 310.908722,257.036224 
	C315.804047,257.036224 320.238495,256.954742 324.668579,257.058502 
	C329.368988,257.168610 330.356842,258.634155 328.621735,263.591003 
	C325.352875,263.986633 322.526215,263.920044 319.706085,264.026672 
	C313.450348,264.263245 307.197906,264.586639 300.737305,264.901367 
	C300.530457,264.928070 300.119843,265.001465 300.119843,265.001465 
	C300.119843,265.001465 299.990417,264.959595 299.911285,264.730774 
	C299.692566,264.299957 299.520050,264.131714 299.314636,263.997223 
z"/>
<path fill="#D7C3AB" opacity="1.000000" stroke="none" 
	d="
M356.024567,97.094162 
	C356.055389,96.902588 356.086212,96.711014 356.352203,96.071701 
	C356.486542,95.089287 356.385712,94.554611 356.284851,94.019943 
	C357.392761,93.344841 358.454834,92.184746 359.616150,92.074989 
	C366.135559,91.458847 373.075012,92.307022 379.111298,90.332542 
	C386.270660,87.990700 392.827240,83.560265 399.306824,79.495811 
	C402.276031,77.633339 406.882874,77.211708 407.946777,72.443802 
	C409.304718,74.220337 410.129822,75.970543 410.954956,77.720749 
	C403.048828,85.941406 395.142700,94.162064 386.748291,102.603378 
	C385.804016,102.478470 385.348022,102.132896 384.963409,101.435089 
	C386.031006,99.045555 387.027222,97.008270 388.226257,94.859970 
	C388.437164,94.361031 388.445251,93.973114 388.453308,93.585190 
	C387.962677,93.904732 387.472015,94.224281 386.624512,94.696510 
	C378.898193,97.169006 373.097473,102.059998 367.218811,106.732903 
	C364.576294,108.833405 362.449860,111.583168 359.824524,114.179451 
	C359.023834,114.901054 358.487915,115.481529 357.728638,116.037918 
	C357.505280,116.013840 357.054932,115.999680 356.785034,115.768417 
	C354.694092,115.715927 352.873016,115.894707 351.042542,115.752739 
	C351.028961,115.004204 351.024841,114.576408 351.269104,114.086975 
	C351.688019,114.020279 351.858551,114.015228 352.409119,114.026489 
	C354.184235,113.678947 355.579407,113.315071 357.044250,112.591705 
	C357.146301,111.904350 357.050262,111.414078 357.229706,111.272240 
	C362.474304,107.126633 367.795349,103.075989 372.980103,98.857658 
	C374.304749,97.779930 375.211761,96.188927 377.165863,93.779045 
	C374.154755,94.068741 372.715942,94.392242 371.301147,94.308701 
	C367.001648,94.054810 364.333069,97.169762 360.821564,99.230133 
	C359.454956,100.267540 358.331787,101.125015 357.126373,101.769440 
	C357.044159,101.556396 356.948456,101.109818 356.824097,100.785507 
	C356.474701,99.338860 356.249634,98.216507 356.024567,97.094162 
M386.811157,90.706665 
	C385.546753,90.567444 384.282318,90.428215 383.017914,90.288994 
	C382.960907,91.324181 382.903870,92.359367 382.846863,93.394547 
	C384.177399,92.739105 385.507935,92.083656 386.811157,90.706665 
M406.528137,77.458984 
	C406.326019,77.669846 406.123871,77.880707 405.921753,78.091583 
	C406.119049,78.224953 406.316376,78.358315 406.513702,78.491692 
	C406.637024,78.148041 406.760345,77.804382 406.528137,77.458984 
z"/>
<path fill="#345297" opacity="1.000000" stroke="none" 
	d="
M346.620422,299.347473 
	C343.503876,302.815216 341.450226,301.802643 340.031067,298.205627 
	C338.840118,295.187012 337.701233,292.147888 335.996368,287.701965 
	C334.713989,291.432251 334.112457,294.067291 332.916168,296.396912 
	C331.856354,298.460724 330.135132,300.184845 328.705902,302.058929 
	C327.289368,300.242950 325.387268,298.625153 324.549713,296.572876 
	C322.279633,291.010223 320.461304,285.263245 318.350983,279.268799 
	C321.318115,277.492706 323.865692,276.921112 325.183899,281.518799 
	C326.135284,284.837250 327.334045,288.084747 328.776001,292.429047 
	C330.065308,288.512512 330.815674,285.319550 332.186584,282.420044 
	C332.976868,280.748566 334.770081,279.551300 336.111908,278.140625 
	C337.443024,279.546997 339.127991,280.761780 340.018494,282.406677 
	C341.216034,284.618683 341.800507,287.162567 342.832733,290.087036 
	C346.978088,286.359985 344.926422,278.402679 353.696686,278.072571 
	C351.207855,285.571747 348.979340,292.286530 346.620422,299.347473 
z"/>
<path fill="#345297" opacity="1.000000" stroke="none" 
	d="
M262.061096,288.308624 
	C262.452942,285.687012 262.563354,283.377625 263.146210,281.194336 
	C263.445435,280.073578 264.588074,279.178009 265.349548,278.180695 
	C266.185852,279.200653 267.708069,280.195923 267.745880,281.244659 
	C267.972717,287.537903 267.858398,293.843445 267.858398,300.950409 
	C260.132812,300.296356 258.248138,293.242126 252.837784,289.608398 
	C252.837784,292.522034 253.141235,295.254333 252.715698,297.867950 
	C252.487061,299.272125 251.006760,300.472504 250.091248,301.764862 
	C249.123169,300.523407 247.393967,299.325470 247.320129,298.032928 
	C247.017059,292.727539 247.081543,287.387024 247.328964,282.074249 
	C247.391174,280.738708 248.475693,278.531494 249.373367,278.377838 
	C250.602264,278.167480 252.440002,279.225647 253.417313,280.290375 
	C255.747910,282.829498 257.678528,285.731934 259.900360,288.378815 
	C260.234558,288.776917 261.266235,288.589569 262.061096,288.308624 
z"/>
<path fill="#345297" opacity="1.000000" stroke="none" 
	d="
M356.081238,291.663971 
	C356.607117,277.965668 365.348694,275.929932 374.738403,279.179443 
	C379.685944,280.891663 380.723022,285.917877 380.870605,290.685730 
	C381.020447,295.526886 378.168762,298.800995 374.024902,300.585510 
	C366.541992,303.807983 358.284363,299.882812 356.081238,291.663971 
M374.981567,287.041504 
	C374.507629,286.369324 374.163208,285.298309 373.537048,285.094940 
	C371.024658,284.279083 368.005859,282.622498 365.972595,283.390381 
	C363.839630,284.195953 361.450012,287.367554 361.346588,289.605591 
	C361.251862,291.655121 363.608124,294.616425 365.673798,295.811523 
	C370.998718,298.892365 374.955261,295.349609 374.981567,287.041504 
z"/>
<path fill="#345297" opacity="1.000000" stroke="none" 
	d="
M393.969604,278.052429 
	C399.065704,277.498230 403.289185,278.316162 404.885620,283.250671 
	C405.604034,285.471252 405.501831,288.454285 404.585602,290.580048 
	C403.459045,293.193695 402.278198,295.154755 404.673370,297.660828 
	C405.293854,298.310059 404.878967,299.948883 404.939667,301.133148 
	C403.661560,300.901489 402.177277,300.996338 401.158875,300.353333 
	C399.957794,299.594971 399.320770,297.973114 398.147278,297.133759 
	C396.608124,296.032867 394.783722,295.330780 392.524017,294.170715 
	C392.099457,296.823730 391.845306,298.411896 391.544495,300.291748 
	C389.220947,301.128601 387.221039,301.710999 387.014069,297.876740 
	C386.794312,293.805817 386.152710,289.756042 385.974609,285.684814 
	C385.643097,278.104645 385.727386,278.100952 393.969604,278.052429 
M395.343689,282.917847 
	C389.393463,283.075287 392.547760,287.043030 392.132538,289.797852 
	C395.912231,290.473541 399.326111,290.612091 400.678162,286.739197 
	C400.913879,286.064026 397.780914,284.212891 395.343689,282.917847 
z"/>
<path fill="#39589A" opacity="1.000000" stroke="none" 
	d="
M412.590057,278.599731 
	C419.797241,277.366455 417.098694,282.988495 418.139252,285.837189 
	C423.263763,284.725861 424.356445,276.223480 432.495422,278.778992 
	C431.040070,280.608673 430.133118,282.302032 428.749573,283.388245 
	C423.924622,287.176239 423.548096,289.496002 427.495972,294.027557 
	C428.585114,295.277771 430.073029,296.240601 430.924530,297.616028 
	C431.460663,298.481995 431.154053,299.869690 431.225525,301.023315 
	C430.058044,300.981537 428.448059,301.415985 427.800690,300.814484 
	C425.175995,298.375610 422.847168,295.618256 419.315125,291.793762 
	C418.335693,294.805023 417.799591,296.941925 416.928284,298.932037 
	C416.471344,299.975830 415.559967,301.019287 414.576965,301.528809 
	C414.222504,301.712524 412.431580,300.393738 412.363129,299.660950 
	C411.783051,293.449280 411.407043,287.216644 411.101898,280.983856 
	C411.068024,280.291809 411.859894,279.559387 412.590057,278.599731 
z"/>
<path fill="#3457A0" opacity="1.000000" stroke="none" 
	d="
M290.018250,282.636902 
	C288.617493,282.681152 287.216766,282.725403 285.289978,282.628082 
	C284.468658,282.381317 284.217743,282.450714 284.011230,282.694672 
	C283.284668,282.764984 282.558075,282.835297 281.254364,283.174377 
	C280.821960,284.608093 280.966705,285.773010 281.111450,286.937958 
	C281.836212,287.009186 282.561005,287.080383 283.759277,287.294678 
	C284.232788,287.437744 284.657196,287.456116 284.657196,287.456116 
	C284.657196,287.456116 285.003265,287.197327 285.003265,287.197327 
	C285.452271,287.167572 285.901245,287.137817 286.939758,287.335205 
	C288.342377,287.711456 289.155426,287.860535 289.968506,288.009583 
	C289.968506,288.009583 289.996887,287.991577 289.858765,288.365784 
	C287.945923,289.163269 286.140259,289.488892 284.405853,290.039215 
	C282.883759,290.522125 281.441528,291.256927 279.964050,291.880463 
	C280.118713,293.218292 280.273407,294.556152 281.097778,296.316681 
	C284.978607,297.164459 288.189789,297.589508 292.365265,298.142242 
	C289.739410,299.937714 288.354523,300.884674 286.969635,301.831635 
	C275.071869,302.177948 275.071869,302.177948 275.092804,290.654724 
	C275.115875,277.955353 275.115875,277.954559 288.038574,278.089752 
	C288.699066,278.096649 289.359192,278.134949 290.488495,278.558838 
	C290.644409,280.185028 290.331329,281.410980 290.018250,282.636902 
z"/>
<path fill="#345297" opacity="1.000000" stroke="none" 
	d="
M302.965332,295.617859 
	C302.974091,291.214661 302.974091,287.261719 302.974091,284.015594 
	C299.865509,282.810028 297.487427,281.887787 295.109344,280.965546 
	C295.216705,280.294006 295.324036,279.622467 295.431396,278.950928 
	C302.263245,277.212311 309.223297,278.187683 316.148285,278.420685 
	C316.380798,279.029358 316.613342,279.638000 316.845886,280.246674 
	C314.534088,281.506104 312.222290,282.765533 309.147888,284.440430 
	C306.733429,289.140564 312.145782,296.533417 305.276001,302.943573 
	C304.283661,300.002014 303.620117,298.035065 302.965332,295.617859 
z"/>
<path fill="#CBBAAA" opacity="1.000000" stroke="none" 
	d="
M351.020691,114.148605 
	C351.024841,114.576408 351.028961,115.004204 351.024963,116.142433 
	C350.999329,117.899147 350.981750,118.945419 350.644257,120.047951 
	C349.283447,120.415108 348.242523,120.726006 347.095642,120.670845 
	C342.358887,120.598427 337.728149,120.892067 333.185394,120.831284 
	C332.989594,119.392403 332.705841,118.307945 332.422058,117.223480 
	C330.580566,118.152290 328.739105,119.081100 326.675232,120.014793 
	C326.452820,120.019684 326.008148,120.004791 326.051453,119.592384 
	C325.672791,115.612366 327.746124,115.205429 330.720795,114.543358 
	C333.062103,114.022263 334.969543,111.551674 337.028381,109.929062 
	C336.987000,109.911095 336.924896,109.976540 336.924896,109.976540 
	C343.093872,105.791512 349.262878,101.606483 355.728210,97.257812 
	C356.249634,98.216507 356.474701,99.338860 356.468689,100.724594 
	C349.702148,105.952927 343.166718,110.917870 335.740631,116.559425 
	C340.353485,116.559425 343.475555,116.820137 346.521484,116.451614 
	C348.091125,116.261711 349.525299,114.952202 351.020691,114.148605 
z"/>
<path fill="#405A95" opacity="1.000000" stroke="none" 
	d="
M331.961273,193.103180 
	C333.453735,197.211807 335.999268,194.656174 338.943024,194.052780 
	C340.109985,194.097580 340.563812,194.183334 341.017609,194.269104 
	C339.700592,195.548660 338.383575,196.828217 337.037811,198.442825 
	C335.588409,199.422394 334.167725,200.066879 332.418823,200.768631 
	C330.839508,195.568466 327.342346,198.813919 323.977722,198.834488 
	C318.506317,196.780960 313.744812,194.763245 309.033691,192.437561 
	C309.960327,191.064682 310.836548,189.999817 312.123169,188.967102 
	C314.826935,189.774139 317.094971,190.637314 319.419312,191.304428 
	C323.509369,192.478287 327.340088,195.603516 331.961273,193.103180 
z"/>
<path fill="#C6B29E" opacity="1.000000" stroke="none" 
	d="
M384.891998,101.787338 
	C385.348022,102.132896 385.804016,102.478470 386.544128,102.895737 
	C385.203766,105.227058 383.579285,107.486687 381.781250,109.987762 
	C382.757446,110.853912 383.663879,111.658180 384.714539,113.002838 
	C384.818268,113.728531 384.777802,113.913849 384.419586,114.062576 
	C381.643768,114.728958 379.185669,115.431923 376.580536,115.971939 
	C376.269562,115.565704 376.125031,115.311409 375.874939,114.833481 
	C375.545898,114.355003 375.293182,114.148720 374.692261,113.983620 
	C374.193390,113.946899 373.994141,113.928558 373.925049,113.575439 
	C377.667450,109.422890 381.279724,105.605110 384.891998,101.787338 
z"/>
<path fill="#D7C3AB" opacity="1.000000" stroke="none" 
	d="
M384.737335,114.099159 
	C384.777802,113.913849 384.818268,113.728531 384.932373,113.268402 
	C390.344574,112.986473 395.683136,112.979362 401.816772,112.954880 
	C403.106689,112.933197 403.601532,112.928879 403.913208,113.206360 
	C402.469910,114.320045 401.209808,115.151932 399.949707,115.983826 
	C398.851746,116.536850 397.799835,117.245094 396.639862,117.588921 
	C395.851074,117.822708 394.910950,117.545959 393.869629,116.833954 
	C389.503784,117.334579 385.306824,118.498779 381.298218,119.407410 
	C382.570190,117.467606 383.653778,115.783379 384.737335,114.099159 
z"/>
<path fill="#B2A494" opacity="1.000000" stroke="none" 
	d="
M404.096405,112.924568 
	C403.601532,112.928879 403.106689,112.933197 402.240723,112.932640 
	C402.863739,109.300797 405.942230,109.711334 408.159058,110.535599 
	C409.401215,110.997444 410.408813,113.613609 410.500916,115.314415 
	C410.670624,118.447838 408.201782,118.524330 405.680328,118.795280 
	C403.327515,119.048088 401.076385,120.247215 398.379547,121.047142 
	C398.888641,119.909248 399.798737,118.753998 401.285553,117.313583 
	C402.992249,116.984756 404.402557,117.344276 405.184784,116.800438 
	C406.284851,116.035576 406.918854,114.600349 407.752167,113.451797 
	C406.533569,113.276047 405.315002,113.100304 404.096405,112.924568 
z"/>
<path fill="#405A95" opacity="1.000000" stroke="none" 
	d="
M300.944122,264.874664 
	C307.197906,264.586639 313.450348,264.263245 319.706085,264.026672 
	C322.526215,263.920044 325.352875,263.986633 328.653748,263.962769 
	C329.347748,264.137268 329.576874,264.312653 329.766754,264.523346 
	C329.791809,264.551147 329.616943,264.759186 329.048157,264.996399 
	C328.044495,265.328094 327.527313,265.547119 327.010132,265.766113 
	C319.311432,265.806305 311.612701,265.846497 303.225861,265.661743 
	C302.006531,265.249420 301.475311,265.062042 300.944122,264.874664 
z"/>
<path fill="#BBA993" opacity="1.000000" stroke="none" 
	d="
M411.311401,77.823479 
	C410.129822,75.970543 409.304718,74.220337 408.238159,72.232124 
	C409.428223,71.101204 411.031921,69.321182 412.244415,69.556534 
	C413.543671,69.808723 415.574524,72.236504 415.325806,73.218048 
	C414.878540,74.983063 412.967407,76.377136 411.311401,77.823479 
z"/>
<path fill="#C6B29E" opacity="1.000000" stroke="none" 
	d="
M332.250916,104.983795 
	C332.331757,104.252167 332.379181,103.514656 332.506622,102.791237 
	C332.576691,102.393433 332.781342,102.019348 332.925262,101.634567 
	C333.238800,101.919144 333.552368,102.203705 333.936035,102.736862 
	C335.237122,103.500618 336.468109,104.015778 338.085724,104.692726 
	C337.736908,106.137589 337.366241,107.672951 336.960236,109.592422 
	C336.924896,109.976540 336.987000,109.911095 336.617554,109.910408 
	C333.197815,109.661766 329.235870,110.153580 332.250916,104.983795 
z"/>
<path fill="#405A95" opacity="1.000000" stroke="none" 
	d="
M194.925995,255.552124 
	C188.765717,258.642700 188.687164,259.058868 193.734360,264.613586 
	C187.388092,264.119843 186.062744,261.456451 189.106613,256.139221 
	C190.884277,253.033890 192.694580,254.394760 194.925995,255.552124 
z"/>
<path fill="#C6B29E" opacity="1.000000" stroke="none" 
	d="
M387.723022,75.290863 
	C387.284729,76.619957 386.820923,78.099281 385.874481,78.538490 
	C384.879974,78.999985 383.365936,78.641449 382.202637,78.262039 
	C381.840973,78.144089 381.490173,76.431732 381.817444,76.073792 
	C382.599335,75.218628 383.722046,74.464394 384.834534,74.194427 
	C385.608704,74.006561 386.594238,74.689743 387.723022,75.290863 
z"/>
<path fill="#2C4885" opacity="1.000000" stroke="none" 
	d="
M287.375305,301.908722 
	C288.354523,300.884674 289.739410,299.937714 292.365265,298.142242 
	C288.189789,297.589508 284.978607,297.164459 281.428955,296.560364 
	C283.380951,296.311493 285.722626,295.920410 287.945465,296.274689 
	C289.682068,296.551483 292.534241,297.553070 292.697418,298.580841 
	C293.266724,302.166504 290.268402,301.993622 287.375305,301.908722 
z"/>
<path fill="#2C4885" opacity="1.000000" stroke="none" 
	d="
M280.398010,291.871490 
	C281.441528,291.256927 282.883759,290.522125 284.405853,290.039215 
	C286.140259,289.488892 287.945923,289.163269 289.857178,288.382446 
	C291.795319,290.781250 291.063934,292.225342 287.757080,292.181274 
	C285.447723,292.150543 283.140289,291.973969 280.398010,291.871490 
z"/>
<path fill="#2C4885" opacity="1.000000" stroke="none" 
	d="
M290.352600,282.706848 
	C290.331329,281.410980 290.644409,280.185028 290.944763,278.633667 
	C293.720856,279.955200 293.850769,281.456329 290.352600,282.706848 
z"/>
<path fill="#B2A494" opacity="1.000000" stroke="none" 
	d="
M394.329926,122.958611 
	C394.937225,122.326836 395.899536,121.727615 397.245819,121.151978 
	C396.648163,121.780754 395.666565,122.385956 394.329926,122.958611 
z"/>
<path fill="#2C4885" opacity="1.000000" stroke="none" 
	d="
M281.112610,286.548157 
	C280.966705,285.773010 280.821960,284.608093 280.895081,283.241150 
	C281.113220,284.078888 281.113464,285.118591 281.112610,286.548157 
z"/>
<path fill="#405A95" opacity="1.000000" stroke="none" 
	d="
M341.442322,198.855988 
	C342.486603,198.533539 343.922150,198.275650 345.737427,198.028976 
	C344.689331,198.333664 343.261414,198.627106 341.442322,198.855988 
z"/>
<path fill="#2C4885" opacity="1.000000" stroke="none" 
	d="
M289.755920,287.759216 
	C289.155426,287.860535 288.342377,287.711456 287.275330,287.379822 
	C287.862000,287.301147 288.702667,287.404999 289.755920,287.759216 
z"/>
<path fill="#2C4885" opacity="1.000000" stroke="none" 
	d="
M300.737305,264.901367 
	C301.475311,265.062042 302.006531,265.249420 302.758484,265.610931 
	C302.142944,265.702728 301.306641,265.620392 300.295074,265.269775 
	C300.119843,265.001465 300.530457,264.928070 300.737305,264.901367 
z"/>
<path fill="#CBBAAA" opacity="1.000000" stroke="none" 
	d="
M356.201019,94.341164 
	C356.385712,94.554611 356.486542,95.089287 356.442749,95.795097 
	C356.237854,95.531616 356.177521,95.097000 356.201019,94.341164 
z"/>
<path fill="#2C4885" opacity="1.000000" stroke="none" 
	d="
M327.309845,265.828857 
	C327.527313,265.547119 328.044495,265.328094 328.847412,265.095581 
	C328.625305,265.351868 328.117432,265.621704 327.309845,265.828857 
z"/>
<path fill="#2C4885" opacity="1.000000" stroke="none" 
	d="
M284.752197,287.160400 
	C285.003265,287.197327 284.657196,287.456116 284.657196,287.456116 
	C284.657196,287.456116 284.232788,287.437744 284.120758,287.342102 
	C284.172852,287.205505 284.336975,287.164520 284.752197,287.160400 
z"/>
<path fill="#2C4885" opacity="1.000000" stroke="none" 
	d="
M284.254608,282.744141 
	C284.217743,282.450714 284.468658,282.381317 284.871643,282.578674 
	C284.979279,282.670807 284.497986,282.793579 284.254608,282.744141 
z"/>
<path fill="#405A95" opacity="1.000000" stroke="none" 
	d="
M299.318207,264.204712 
	C299.520050,264.131714 299.692566,264.299957 299.913330,264.662781 
	C299.684570,264.826630 299.460327,264.689484 299.318207,264.204712 
z"/>
<path fill="#000000" opacity="1.000000" stroke="none" 
	d="
M471.161987,234.944702 
	C472.749420,234.962036 474.205719,234.535522 474.995789,235.078491 
	C476.857269,236.357758 479.457764,237.919113 479.762634,239.706848 
	C480.042114,241.345825 478.122009,244.177811 476.415619,245.129044 
	C474.316345,246.299286 471.434021,246.064911 469.002899,246.421112 
	C466.079498,237.574203 466.254852,236.559845 471.161987,234.944702 
z"/>
<path fill="#000000" opacity="1.000000" stroke="none" 
	d="
M435.177124,235.588547 
	C436.703186,236.882721 438.868469,238.005646 438.808014,238.992172 
	C438.684174,241.013397 437.855377,244.089981 436.437775,244.704651 
	C433.486786,245.984207 429.963715,245.944519 426.275879,246.508102 
	C426.275879,242.280045 426.275879,239.041931 426.275879,235.355576 
	C429.083771,235.355576 431.946350,235.355576 435.177124,235.588547 
z"/>
<path fill="#000000" opacity="1.000000" stroke="none" 
	d="
M392.798920,247.499359 
	C390.401367,248.358917 387.925415,248.825851 384.658264,249.442001 
	C386.221924,245.706299 387.323761,243.073898 388.914520,239.273422 
	C390.423431,242.378967 391.571991,244.742859 392.798920,247.499359 
z"/>
<path fill="#020202" opacity="1.000000" stroke="none" 
	d="
M348.668915,85.390495 
	C348.873810,86.092834 348.912903,87.243126 348.496796,87.442238 
	C332.343933,95.171440 320.172394,107.863792 307.643829,120.105515 
	C303.904785,123.758926 302.441010,129.698776 296.057861,130.728683 
	C292.237427,131.345093 288.570862,132.915237 284.471893,133.985260 
	C282.903595,123.582588 288.348602,115.336693 292.750061,106.800621 
	C293.246002,105.838791 294.851562,104.858192 295.917999,104.884392 
	C300.385406,104.994179 303.753937,102.937622 304.207520,98.813889 
	C304.939880,92.155876 310.417816,90.984489 314.667938,88.765182 
	C324.421509,83.672089 334.716583,81.808060 345.480408,85.860100 
	C346.249817,86.149742 347.346375,85.570229 348.668915,85.390495 
z"/>
<path fill="#020202" opacity="1.000000" stroke="none" 
	d="
M308.983276,192.745544 
	C313.744812,194.763245 318.506317,196.780960 323.603455,198.976410 
	C321.575836,200.954102 319.469482,203.637192 316.807861,204.411438 
	C298.783905,209.654495 284.154572,204.935562 273.740631,189.037506 
	C265.990387,177.205856 267.025665,158.069885 276.933044,148.107224 
	C277.142548,147.896561 277.161346,147.496216 277.589417,147.041290 
	C279.424072,152.539810 280.938446,158.181427 282.778625,164.350510 
	C279.891113,166.561676 276.677826,168.245361 272.356171,170.509796 
	C276.602997,172.136169 280.436188,173.261597 283.944061,175.031662 
	C288.641785,177.402145 295.535004,176.226318 297.286163,183.570770 
	C298.539429,188.827026 300.416229,193.944077 302.212311,199.053833 
	C302.593323,200.137680 303.831329,200.920288 304.542511,201.697495 
	C306.292664,198.169510 307.637970,195.457535 308.983276,192.745544 
z"/>
<path fill="#020202" opacity="1.000000" stroke="none" 
	d="
M284.095825,141.436066 
	C287.287109,139.353653 290.348083,137.515457 293.610168,136.161850 
	C298.531281,134.119812 303.592804,132.416077 309.136963,130.253632 
	C314.003540,128.178894 318.351898,126.475510 322.644623,124.641891 
	C326.244293,123.104309 327.986816,123.976982 327.948517,127.791626 
	C327.911011,131.530197 327.477051,135.264801 327.118042,139.231323 
	C326.979218,139.623764 326.939423,139.786057 326.936584,139.945374 
	C326.973541,139.942398 326.926514,139.885040 326.599792,139.962982 
	C325.980255,140.711014 325.687408,141.381104 325.328522,142.419464 
	C325.219208,143.533554 325.175903,144.279388 324.833740,145.197083 
	C320.082428,149.412445 315.629974,153.455933 311.345367,157.346970 
	C310.388092,155.198517 309.212738,152.560608 307.996582,149.530548 
	C306.335907,145.745453 307.537506,140.781494 302.435608,138.718491 
	C300.858398,145.148254 299.413361,151.039291 297.763245,157.057068 
	C297.253723,157.405014 297.164185,157.693054 297.182251,158.268784 
	C297.074921,158.489624 297.018372,158.977432 296.718964,159.142731 
	C296.279083,160.203384 296.138580,161.098709 295.663940,162.087433 
	C294.875061,162.265457 294.420349,162.350082 293.743530,162.329865 
	C293.205536,162.378784 293.003021,162.625595 292.671478,163.010651 
	C292.429047,163.055847 291.989227,163.279022 291.623444,163.235046 
	C290.524017,163.153290 289.790344,163.115509 289.056702,163.077713 
	C285.151520,156.546021 283.185699,149.556412 284.095825,141.436066 
M315.769073,135.772507 
	C317.294617,135.768250 318.936401,136.082932 320.284332,135.591568 
	C320.774567,135.412857 321.068115,132.967651 320.532806,132.184296 
	C319.988708,131.388107 317.675049,130.723602 317.261017,131.134567 
	C316.324646,132.063995 316.081085,133.691422 315.769073,135.772507 
z"/>
<path fill="#B2A494" opacity="1.000000" stroke="none" 
	d="
M309.033691,192.437561 
	C307.637970,195.457535 306.292664,198.169510 304.542511,201.697495 
	C303.831329,200.920288 302.593323,200.137680 302.212311,199.053833 
	C300.416229,193.944077 298.539429,188.827026 297.286163,183.570770 
	C295.535004,176.226318 288.641785,177.402145 283.944061,175.031662 
	C280.436188,173.261597 276.602997,172.136169 272.356171,170.509796 
	C276.677826,168.245361 279.891113,166.561676 283.143097,164.509979 
	C284.799561,164.054016 286.417358,163.966049 288.532471,163.959717 
	C289.029755,164.041351 289.203400,164.232925 289.043274,164.526932 
	C286.030670,166.705338 283.178131,168.589722 279.078461,171.297989 
	C283.294617,172.536407 285.769989,173.473450 288.330750,173.970810 
	C293.257141,174.927628 296.970978,177.200226 298.754486,182.139023 
	C299.819733,185.088791 300.959778,188.027786 302.338013,190.838333 
	C302.748383,191.675110 304.179382,192.628708 304.961029,192.491776 
	C305.737244,192.355774 306.280426,190.911087 306.933441,190.046066 
	C307.974792,188.666626 309.022491,187.291946 310.344391,186.046448 
	C310.985138,187.096741 311.348969,188.015839 311.712799,188.934937 
	C310.836548,189.999817 309.960327,191.064682 309.033691,192.437561 
z"/>
<path fill="#3457A4" opacity="1.000000" stroke="none" 
	d="
M300.675201,100.658440 
	C298.116577,100.866997 295.670532,101.244041 293.646698,100.489166 
	C292.856293,100.194351 292.207153,96.516190 292.904907,95.844116 
	C294.496796,94.310738 297.128784,92.596863 299.037567,92.893150 
	C304.393433,93.724510 301.811646,97.447342 300.675201,100.658440 
z"/>
<path fill="#B2A494" opacity="1.000000" stroke="none" 
	d="
M288.994324,163.268188 
	C289.790344,163.115509 290.524017,163.153290 291.516357,163.406860 
	C291.596954,163.825745 291.398407,164.006409 290.848694,164.158081 
	C290.079773,164.178680 289.641571,164.205811 289.203400,164.232925 
	C289.203400,164.232925 289.029755,164.041351 288.939880,163.946198 
	C288.850006,163.851044 288.931915,163.458649 288.994324,163.268188 
z"/>
<path fill="#060505" opacity="1.000000" stroke="none" 
	d="
M331.869537,104.889847 
	C329.235870,110.153580 333.197815,109.661766 336.658936,109.928375 
	C334.969543,111.551674 333.062103,114.022263 330.720795,114.543358 
	C327.746124,115.205429 325.672791,115.612366 325.676514,119.643280 
	C320.832092,121.435455 316.405945,122.764336 311.979797,124.093216 
	C316.911041,116.072060 324.122894,110.356445 331.869537,104.889847 
z"/>
<path fill="#D7C3AB" opacity="1.000000" stroke="none" 
	d="
M311.921936,124.422752 
	C316.405945,122.764336 320.832092,121.435455 325.633179,120.055679 
	C326.008148,120.004791 326.452820,120.019684 326.783691,120.345901 
	C328.400635,121.456772 329.686676,122.241417 330.968445,123.258392 
	C330.964142,123.490723 330.982635,123.957039 330.885864,124.221764 
	C330.719696,124.661102 330.650299,124.835724 330.444214,125.099167 
	C330.144104,125.538620 330.233673,125.803009 330.666687,126.352768 
	C330.727631,127.485939 330.698120,128.247498 330.512115,129.177811 
	C330.466919,129.895981 330.578186,130.445419 330.755310,131.392334 
	C330.770569,132.860001 330.720001,133.930191 330.556152,135.113464 
	C330.362213,135.576004 330.485901,135.837204 330.901978,136.211639 
	C330.989929,136.413116 331.073669,136.844788 330.950623,137.154190 
	C330.575409,138.308716 330.323242,139.153839 329.717712,140.012878 
	C328.894714,140.032639 328.425110,140.038483 327.871704,139.844467 
	C327.647247,139.386047 327.457001,139.171570 327.217102,139.001144 
	C327.477051,135.264801 327.911011,131.530197 327.948517,127.791626 
	C327.986816,123.976982 326.244293,123.104309 322.644623,124.641891 
	C318.351898,126.475510 314.003540,128.178894 309.331543,129.968445 
	C308.863922,129.097916 308.324493,127.888824 308.712128,127.362289 
	C309.496826,126.296471 310.784058,125.600662 311.921936,124.422752 
z"/>
<path fill="#010101" opacity="1.000000" stroke="none" 
	d="
M341.399200,194.162781 
	C340.563812,194.183334 340.109985,194.097580 339.314880,193.946121 
	C344.006134,177.387299 351.601837,162.162292 362.933044,149.154114 
	C368.536407,142.721481 375.342163,137.324326 381.730804,131.600357 
	C382.704834,130.727661 384.368408,130.624588 385.926819,130.424377 
	C388.871277,143.029556 386.001526,154.463486 380.392853,165.419418 
	C380.003082,166.180817 379.064819,167.048737 378.281586,167.159439 
	C372.597809,167.962753 371.266571,171.224991 370.703796,176.708145 
	C370.385071,179.813232 366.603180,183.540222 363.443481,185.175934 
	C356.540192,188.749619 349.038208,191.166824 341.399200,194.162781 
z"/>
<path fill="#020202" opacity="1.000000" stroke="none" 
	d="
M312.123169,188.967102 
	C311.348969,188.015839 310.985138,187.096741 310.324402,185.846924 
	C310.027557,185.516190 310.029785,185.113892 310.250702,185.000854 
	C310.324341,184.553970 310.177063,184.220108 310.031494,183.683350 
	C310.033234,183.480438 310.104889,183.080963 310.441895,182.977036 
	C312.348724,179.682297 314.804260,177.686600 318.324554,176.860397 
	C319.664154,176.546005 320.865173,175.641190 322.431763,174.994049 
	C323.133911,174.937775 323.533630,174.892914 324.325897,174.930847 
	C328.416351,173.609467 332.114258,172.205292 336.673676,170.473984 
	C329.109375,167.497696 322.543579,164.914322 315.344757,162.081848 
	C321.129059,157.086960 323.214996,149.665024 330.710968,147.788910 
	C331.256866,147.652298 331.415558,145.968475 331.918701,144.713989 
	C332.392273,144.103409 332.701447,143.782822 333.408722,143.375092 
	C337.567688,142.541641 341.304474,141.593231 345.100403,141.140503 
	C346.810120,140.936584 348.637756,141.721573 350.259033,142.413239 
	C349.735626,144.508209 349.365021,146.247849 348.673950,148.185623 
	C346.881134,153.933975 345.408813,159.484177 343.936523,165.034393 
	C340.676880,173.434372 337.434784,181.841278 334.131683,190.224136 
	C333.781067,191.113937 333.072876,191.862839 332.245911,192.890152 
	C327.340088,195.603516 323.509369,192.478287 319.419312,191.304428 
	C317.094971,190.637314 314.826935,189.774139 312.123169,188.967102 
M341.231628,157.752701 
	C341.310974,156.681152 341.607269,155.566498 341.405365,154.550858 
	C341.223297,153.634781 340.403442,152.067520 340.026276,152.113419 
	C338.875641,152.253479 337.198761,152.755539 336.804810,153.612396 
	C335.134918,157.244507 337.521576,157.875305 341.231628,157.752701 
z"/>
<path fill="#060505" opacity="1.000000" stroke="none" 
	d="
M381.109833,119.662979 
	C385.306824,118.498779 389.503784,117.334579 393.801605,116.526825 
	C390.731842,119.317612 387.587250,121.786835 384.384247,124.177773 
	C380.072571,127.396294 375.715790,130.554474 371.309723,133.788971 
	C370.875305,133.285095 370.458588,132.364090 369.791565,132.115982 
	C368.232269,131.535980 366.552856,131.278961 364.922089,130.891159 
	C364.789337,132.550278 364.575989,134.207932 364.545898,135.868912 
	C364.514221,137.618332 365.419373,139.970291 364.593964,141.019272 
	C360.848755,145.778748 356.656158,150.188446 352.577393,154.681183 
	C351.756165,155.585770 350.729980,156.304291 349.572021,156.695007 
	C349.384460,155.978836 349.335571,155.691162 349.417786,155.247009 
	C349.795288,154.741440 349.953979,154.407272 350.459778,153.869980 
	C350.902069,151.783676 350.997284,149.900513 351.399963,147.851517 
	C351.718811,146.771469 351.730225,145.857239 351.909485,144.620911 
	C354.665466,141.672546 359.677979,140.490295 357.556671,135.003525 
	C357.436615,134.693054 358.669434,133.930862 359.169464,133.297485 
	C361.853088,129.898270 364.503937,126.473213 367.476501,122.904068 
	C369.172455,121.560539 370.453094,120.207901 371.972717,119.224617 
	C373.528076,118.218231 375.317566,117.573723 377.153229,117.075943 
	C378.571228,118.141708 379.840515,118.902344 381.109833,119.662979 
z"/>
<path fill="#CBBAAA" opacity="1.000000" stroke="none" 
	d="
M351.092499,148.017334 
	C350.997284,149.900513 350.902069,151.783676 350.226746,154.031311 
	C349.497437,154.736649 349.348236,155.077530 349.199005,155.418396 
	C349.335571,155.691162 349.384460,155.978836 349.265503,156.488403 
	C350.967682,161.266678 346.391968,162.291290 344.278168,164.957092 
	C345.408813,159.484177 346.881134,153.933975 349.023468,148.192932 
	C350.159821,148.007187 350.626160,148.012253 351.092499,148.017334 
z"/>
<path fill="#C9AA7F" opacity="1.000000" stroke="none" 
	d="
M403.913208,113.206360 
	C405.315002,113.100304 406.533569,113.276047 407.752167,113.451797 
	C406.918854,114.600349 406.284851,116.035576 405.184784,116.800438 
	C404.402557,117.344276 402.992249,116.984756 401.448547,117.043518 
	C400.776093,116.836792 400.517365,116.614967 400.104187,116.188477 
	C401.209808,115.151932 402.469910,114.320045 403.913208,113.206360 
z"/>
<path fill="#0A090C" opacity="1.000000" stroke="none" 
	d="
M351.269104,114.086967 
	C349.525299,114.952202 348.091125,116.261711 346.521484,116.451614 
	C343.475555,116.820137 340.353485,116.559425 335.740631,116.559425 
	C343.166718,110.917870 349.702148,105.952927 356.593018,101.048897 
	C356.948456,101.109818 357.044159,101.556396 357.010376,102.087051 
	C356.703339,103.584183 356.430145,104.550667 356.156952,105.517151 
	C356.709534,105.754051 357.262146,105.990952 357.814758,106.227852 
	C358.898163,103.835304 359.981567,101.442764 361.064972,99.050217 
	C364.333069,97.169762 367.001648,94.054810 371.301147,94.308701 
	C372.715942,94.392242 374.154755,94.068741 377.165863,93.779045 
	C375.211761,96.188927 374.304749,97.779930 372.980103,98.857658 
	C367.795349,103.075989 362.474304,107.126633 357.229706,111.272240 
	C357.050262,111.414078 357.146301,111.904350 356.668762,112.625534 
	C354.825409,113.349281 353.427277,113.679718 352.029114,114.010162 
	C351.858551,114.015228 351.688019,114.020279 351.269104,114.086967 
z"/>
<path fill="#CBBAAA" opacity="1.000000" stroke="none" 
	d="
M367.166107,123.057098 
	C364.503937,126.473213 361.853088,129.898270 359.169464,133.297485 
	C358.669434,133.930862 357.436615,134.693054 357.556671,135.003525 
	C359.677979,140.490295 354.665466,141.672546 351.751190,144.405579 
	C351.087311,143.694183 350.749603,142.876038 350.411865,142.057892 
	C348.637756,141.721573 346.810120,140.936584 345.100403,141.140503 
	C341.304474,141.593231 337.567688,142.541641 333.285706,143.188812 
	C332.838654,142.385406 332.912689,141.681137 333.356812,140.970764 
	C335.492950,140.345398 337.259064,139.726135 339.446716,139.057709 
	C343.009979,137.755493 346.283813,136.746155 349.236847,135.145111 
	C350.682159,134.361465 352.319641,132.564148 352.482971,131.073624 
	C352.806915,128.117813 352.168671,125.056580 352.181519,121.902084 
	C352.951813,121.217506 353.468658,120.669762 354.274841,119.966835 
	C355.378937,118.862808 356.193756,117.913956 357.197327,116.849472 
	C357.622437,116.550056 357.811066,116.326118 357.952026,116.062012 
	C358.487915,115.481529 359.023834,114.901054 359.839752,114.445831 
	C360.668182,115.007309 361.216644,115.443520 361.915314,115.983978 
	C362.086884,116.523315 362.108246,116.958397 361.743469,117.513794 
	C356.254913,120.060669 353.948090,125.527100 355.908905,131.327087 
	C359.049011,128.470642 362.060852,125.730873 365.421448,123.006424 
	C366.235474,123.033531 366.700806,123.045311 367.166107,123.057098 
M354.932220,135.432739 
	C353.666443,136.153397 352.400696,136.874054 351.134918,137.594711 
	C351.829712,138.333389 352.524475,139.072067 353.219269,139.810760 
	C353.972900,138.521606 354.726532,137.232452 354.932220,135.432739 
z"/>
<path fill="#060505" opacity="1.000000" stroke="none" 
	d="
M361.765076,115.879730 
	C361.216644,115.443520 360.668182,115.007309 360.104492,114.304703 
	C362.449860,111.583168 364.576294,108.833405 367.218811,106.732903 
	C373.097473,102.059998 378.898193,97.169006 386.867065,94.847435 
	C387.652191,94.887459 387.837799,94.929222 388.023407,94.970985 
	C387.027222,97.008270 386.031006,99.045555 384.963409,101.435089 
	C381.279724,105.605110 377.667450,109.422890 373.633057,113.700180 
	C371.145020,114.480209 369.079071,114.800713 366.622894,115.054565 
	C364.743439,115.285194 363.254272,115.582458 361.765076,115.879730 
z"/>
<path fill="#C9AA7F" opacity="1.000000" stroke="none" 
	d="
M357.008545,116.965111 
	C356.193756,117.913956 355.378937,118.862808 353.898956,119.936333 
	C352.477234,120.037910 351.720703,120.014809 350.964172,119.991699 
	C350.981750,118.945419 350.999329,117.899147 351.034424,116.463173 
	C352.873016,115.894707 354.694092,115.715927 356.766174,116.009445 
	C357.017181,116.481735 357.008545,116.965111 357.008545,116.965111 
z"/>
<path fill="#C9AA7F" opacity="1.000000" stroke="none" 
	d="
M386.824829,91.067444 
	C385.507935,92.083656 384.177399,92.739105 382.846863,93.394547 
	C382.903870,92.359367 382.960907,91.324181 383.017914,90.288994 
	C384.282318,90.428215 385.546753,90.567444 386.824829,91.067444 
z"/>
<path fill="#CBBAAA" opacity="1.000000" stroke="none" 
	d="
M360.821564,99.230133 
	C359.981567,101.442764 358.898163,103.835304 357.814758,106.227852 
	C357.262146,105.990952 356.709534,105.754051 356.156952,105.517151 
	C356.430145,104.550667 356.703339,103.584183 357.092590,102.300095 
	C358.331787,101.125015 359.454956,100.267540 360.821564,99.230133 
z"/>
<path fill="#C6B29E" opacity="1.000000" stroke="none" 
	d="
M352.409119,114.026489 
	C353.427277,113.679718 354.825409,113.349281 356.599060,112.985016 
	C355.579407,113.315071 354.184235,113.678947 352.409119,114.026489 
z"/>
<path fill="#BBA993" opacity="1.000000" stroke="none" 
	d="
M406.705902,77.459854 
	C406.760345,77.804382 406.637024,78.148041 406.513672,78.491684 
	C406.316376,78.358315 406.119049,78.224953 405.921753,78.091576 
	C406.123871,77.880707 406.326019,77.669846 406.705902,77.459854 
z"/>
<path fill="#C9AA7F" opacity="1.000000" stroke="none" 
	d="
M388.226257,94.859970 
	C387.837799,94.929222 387.652191,94.887459 387.223969,94.694763 
	C387.472015,94.224281 387.962677,93.904732 388.453308,93.585190 
	C388.445251,93.973114 388.437164,94.361031 388.226257,94.859970 
z"/>
<path fill="#C6B29E" opacity="1.000000" stroke="none" 
	d="
M357.197327,116.849472 
	C357.008545,116.965111 357.017181,116.481735 357.036072,116.240707 
	C357.054932,115.999680 357.505280,116.013840 357.728638,116.037926 
	C357.811066,116.326118 357.622437,116.550056 357.197327,116.849472 
z"/>
<path fill="#000000" opacity="1.000000" stroke="none" 
	d="
M375.002991,287.458191 
	C374.955261,295.349609 370.998718,298.892365 365.673798,295.811523 
	C363.608124,294.616425 361.251862,291.655121 361.346588,289.605591 
	C361.450012,287.367554 363.839630,284.195953 365.972595,283.390381 
	C368.005859,282.622498 371.024658,284.279083 373.537048,285.094940 
	C374.163208,285.298309 374.507629,286.369324 375.002991,287.458191 
z"/>
<path fill="#000000" opacity="1.000000" stroke="none" 
	d="
M395.773743,282.911377 
	C397.780914,284.212891 400.913879,286.064026 400.678162,286.739197 
	C399.326111,290.612091 395.912231,290.473541 392.132538,289.797852 
	C392.547760,287.043030 389.393463,283.075287 395.773743,282.911377 
z"/>
<path fill="#060505" opacity="1.000000" stroke="none" 
	d="
M330.580902,125.010338 
	C330.650299,124.835724 330.719696,124.661102 331.153259,124.189331 
	C331.654205,123.584633 331.791046,123.277092 332.132874,122.763802 
	C332.605042,122.047569 332.872253,121.537079 333.090698,121.056259 
	C333.041901,121.085922 333.097412,121.185707 333.097412,121.185707 
	C337.728149,120.892067 342.358887,120.598427 346.792664,120.844101 
	C345.260803,122.943802 344.036987,124.618752 342.569244,126.042206 
	C338.795074,129.702545 334.912781,133.251389 331.073669,136.844788 
	C331.073669,136.844788 330.989929,136.413116 330.928162,135.950302 
	C330.800720,135.325119 330.735046,135.162735 330.669403,135.000366 
	C330.720001,133.930191 330.770569,132.860001 330.851074,131.065094 
	C330.810181,129.896591 330.739410,129.452820 330.668579,129.009064 
	C330.698120,128.247498 330.727631,127.485939 330.746277,126.110626 
	C330.683899,125.334686 330.632416,125.172516 330.580902,125.010338 
z"/>
<path fill="#C6B29E" opacity="1.000000" stroke="none" 
	d="
M330.950623,137.154205 
	C334.912781,133.251389 338.795074,129.702545 342.569244,126.042206 
	C344.036987,124.618752 345.260803,122.943802 346.898682,121.210159 
	C348.242523,120.726006 349.283447,120.415108 350.644257,120.047951 
	C351.720703,120.014809 352.477234,120.037910 353.609650,120.091515 
	C353.468658,120.669762 352.951813,121.217506 351.850952,121.989273 
	C347.424194,126.716011 343.520569,131.169479 339.796448,135.768265 
	C339.150330,136.566101 339.262970,137.978394 339.025146,139.106873 
	C337.259064,139.726135 335.492950,140.345398 333.119751,140.760437 
	C331.698792,140.370468 330.884949,140.184723 330.071106,139.998978 
	C330.323242,139.153839 330.575409,138.308716 330.950623,137.154205 
z"/>
<path fill="#BBA993" opacity="1.000000" stroke="none" 
	d="
M330.972717,123.026070 
	C329.686676,122.241417 328.400635,121.456772 327.006104,120.341011 
	C328.739105,119.081100 330.580566,118.152290 332.422058,117.223480 
	C332.705841,118.307945 332.989594,119.392403 333.185394,120.831284 
	C333.097412,121.185707 333.041901,121.085922 332.814362,121.192535 
	C332.069885,121.855179 331.552917,122.411209 331.020264,122.981689 
	C331.004547,122.996132 330.972717,123.026070 330.972717,123.026070 
z"/>
<path fill="#D7C3AB" opacity="1.000000" stroke="none" 
	d="
M367.013153,115.121216 
	C369.079071,114.800713 371.145020,114.480209 373.502930,114.034958 
	C373.994141,113.928558 374.193390,113.946899 374.798706,114.211334 
	C375.469818,114.653656 375.734833,114.849876 375.999878,115.046104 
	C376.125031,115.311409 376.269562,115.565704 376.636475,116.137039 
	C376.839508,116.465088 377.004547,116.770790 377.004547,116.770798 
	C375.317566,117.573723 373.528076,118.218231 371.972717,119.224617 
	C370.453094,120.207901 369.172455,121.560539 367.476501,122.904060 
	C366.700806,123.045311 366.235474,123.033531 365.385254,122.652267 
	C365.675934,120.852142 366.351562,119.421501 367.185913,117.800537 
	C367.234161,116.780540 367.123657,115.950874 367.013153,115.121216 
z"/>
<path fill="#BBA993" opacity="1.000000" stroke="none" 
	d="
M377.153229,117.075928 
	C377.004547,116.770790 376.839508,116.465088 376.783569,116.299988 
	C379.185669,115.431923 381.643768,114.728958 384.419586,114.062576 
	C383.653778,115.783379 382.570190,117.467606 381.298218,119.407410 
	C379.840515,118.902344 378.571228,118.141708 377.153229,117.075928 
z"/>
<path fill="#BBA993" opacity="1.000000" stroke="none" 
	d="
M375.874939,114.833481 
	C375.734833,114.849876 375.469818,114.653656 375.098328,114.229721 
	C375.293182,114.148720 375.545898,114.355003 375.874939,114.833481 
z"/>
<path fill="#C9AA7F" opacity="1.000000" stroke="none" 
	d="
M323.933350,174.848053 
	C323.533630,174.892914 323.133911,174.937775 321.995483,174.985092 
	C319.598511,175.062363 317.788971,174.735794 316.312164,175.292267 
	C312.814636,176.610138 309.009369,177.981720 310.104889,183.080963 
	C310.104889,183.080963 310.033234,183.480438 310.022034,183.990479 
	C310.017181,184.704971 310.023468,184.909439 310.029785,185.113892 
	C310.029785,185.113892 310.027557,185.516190 310.047546,185.715714 
	C309.022491,187.291946 307.974792,188.666626 306.933441,190.046066 
	C306.280426,190.911087 305.737244,192.355774 304.961029,192.491776 
	C304.179382,192.628708 302.748383,191.675110 302.338013,190.838333 
	C300.959778,188.027786 299.819733,185.088791 298.754486,182.139023 
	C296.970978,177.200226 293.257141,174.927628 288.330750,173.970810 
	C285.769989,173.473450 283.294617,172.536407 279.078461,171.297989 
	C283.178131,168.589722 286.030670,166.705338 289.043274,164.526932 
	C289.641571,164.205811 290.079773,164.178680 291.101440,164.357880 
	C293.453674,163.712234 295.222473,162.860245 297.017517,161.741470 
	C297.062683,161.296997 297.081573,161.119293 297.206360,160.861893 
	C297.475708,160.530960 297.434448,160.308487 297.145111,159.830536 
	C297.074005,159.356705 297.046204,159.167068 297.018372,158.977432 
	C297.018372,158.977432 297.074921,158.489624 297.371796,158.257019 
	C297.668671,158.024429 298.046478,157.991394 298.303345,157.756592 
	C300.239868,153.754349 301.919525,149.986923 304.191986,144.889862 
	C305.569061,147.887741 306.292053,149.461670 307.119629,151.389374 
	C309.446747,163.922302 320.557129,165.946808 329.252228,170.070770 
	C327.139526,171.968353 325.536438,173.408203 323.933350,174.848053 
z"/>
<path fill="#BBA993" opacity="1.000000" stroke="none" 
	d="
M324.325897,174.930847 
	C325.536438,173.408203 327.139526,171.968353 329.252228,170.070770 
	C320.557129,165.946808 309.446747,163.922302 307.322479,151.235687 
	C307.626312,150.459717 307.831848,150.191208 308.037384,149.922684 
	C309.212738,152.560608 310.388092,155.198517 311.345367,157.346970 
	C315.629974,153.455933 320.082428,149.412445 325.061096,145.418747 
	C327.643005,145.313690 329.698639,145.158844 331.754303,145.003998 
	C331.415558,145.968475 331.256866,147.652298 330.710968,147.788910 
	C323.214996,149.665024 321.129059,157.086960 315.344757,162.081848 
	C322.543579,164.914322 329.109375,167.497696 336.673676,170.473984 
	C332.114258,172.205292 328.416351,173.609467 324.325897,174.930847 
z"/>
<path fill="#C6B29E" opacity="1.000000" stroke="none" 
	d="
M307.996582,149.530548 
	C307.831848,150.191208 307.626312,150.459717 307.217926,150.881927 
	C306.292053,149.461670 305.569061,147.887741 304.191986,144.889862 
	C301.919525,149.986923 300.239868,153.754349 298.288269,157.491028 
	C298.000305,157.283630 297.984283,157.106964 297.968292,156.930313 
	C299.413361,151.039291 300.858398,145.148254 302.435608,138.718491 
	C307.537506,140.781494 306.335907,145.745453 307.996582,149.530548 
z"/>
<path fill="#C9AA7F" opacity="1.000000" stroke="none" 
	d="
M331.918701,144.713989 
	C329.698639,145.158844 327.643005,145.313690 325.359985,145.246887 
	C325.175903,144.279388 325.219208,143.533554 325.505554,142.383850 
	C325.748627,141.979965 326.101440,141.903198 326.295898,141.784393 
	C326.727570,141.459381 326.895142,141.206879 326.984375,140.651825 
	C326.959259,140.225372 326.942902,140.055206 326.926514,139.885040 
	C326.926514,139.885040 326.973541,139.942398 327.200165,139.973831 
	C327.603027,140.018280 327.779297,140.031311 327.955536,140.044327 
	C328.425110,140.038483 328.894714,140.032639 329.717712,140.012878 
	C330.884949,140.184723 331.698792,140.370468 332.749695,140.766541 
	C332.912689,141.681137 332.838654,142.385406 332.887634,143.275940 
	C332.701447,143.782822 332.392273,144.103409 331.918701,144.713989 
z"/>
<path fill="#BBA993" opacity="1.000000" stroke="none" 
	d="
M315.662415,135.403732 
	C316.081085,133.691422 316.324646,132.063995 317.261017,131.134567 
	C317.675049,130.723602 319.988708,131.388107 320.532806,132.184296 
	C321.068115,132.967651 320.774567,135.412857 320.284332,135.591568 
	C318.936401,136.082932 317.294617,135.768250 315.662415,135.403732 
z"/>
<path fill="#C6B29E" opacity="1.000000" stroke="none" 
	d="
M296.991272,162.008240 
	C295.222473,162.860245 293.453674,163.712234 291.432190,164.364426 
	C291.398407,164.006409 291.596954,163.825745 291.882141,163.450836 
	C291.989227,163.279022 292.429047,163.055847 292.871460,162.977722 
	C293.579498,162.812439 293.796722,162.657471 293.965637,162.434708 
	C294.420349,162.350082 294.875061,162.265457 295.912170,162.094742 
	C296.494537,162.008667 296.991272,162.008255 296.991272,162.008240 
z"/>
<path fill="#BBA993" opacity="1.000000" stroke="none" 
	d="
M326.101440,141.903198 
	C326.101440,141.903198 325.748627,141.979965 325.571594,142.015579 
	C325.687408,141.381104 325.980255,140.711014 326.599792,139.962982 
	C326.942902,140.055206 326.959259,140.225372 326.807922,140.793701 
	C326.412354,141.392456 326.232788,141.629562 326.101440,141.903198 
z"/>
<path fill="#B2A494" opacity="1.000000" stroke="none" 
	d="
M297.017517,161.741486 
	C296.991272,162.008255 296.494537,162.008667 296.246338,162.001358 
	C296.138580,161.098709 296.279083,160.203384 296.718964,159.142731 
	C297.046204,159.167068 297.074005,159.356705 297.110291,160.035278 
	C297.118805,160.524246 297.100433,160.941589 297.100433,160.941589 
	C297.081573,161.119293 297.062683,161.296997 297.017517,161.741486 
z"/>
<path fill="#B2A494" opacity="1.000000" stroke="none" 
	d="
M293.743530,162.329865 
	C293.796722,162.657471 293.579498,162.812439 293.113892,162.932526 
	C293.003021,162.625595 293.205536,162.378784 293.743530,162.329865 
z"/>
<path fill="#B2A494" opacity="1.000000" stroke="none" 
	d="
M297.763245,157.057068 
	C297.984283,157.106964 298.000305,157.283630 298.031433,157.725830 
	C298.046478,157.991394 297.668671,158.024429 297.479126,158.036194 
	C297.164185,157.693054 297.253723,157.405014 297.763245,157.057068 
z"/>
<path fill="#C6B29E" opacity="1.000000" stroke="none" 
	d="
M327.871704,139.844467 
	C327.779297,140.031311 327.603027,140.018280 327.163208,139.976807 
	C326.939423,139.786057 326.979218,139.623764 327.118042,139.231323 
	C327.457001,139.171570 327.647247,139.386047 327.871704,139.844467 
z"/>
<path fill="#BBA993" opacity="1.000000" stroke="none" 
	d="
M330.512146,129.177811 
	C330.739410,129.452820 330.810181,129.896591 330.785217,130.667603 
	C330.578186,130.445419 330.466919,129.895981 330.512146,129.177811 
z"/>
<path fill="#BBA993" opacity="1.000000" stroke="none" 
	d="
M331.927856,122.969543 
	C331.791046,123.277092 331.654205,123.584633 331.250000,123.924606 
	C330.982635,123.957039 330.964142,123.490723 330.968445,123.258392 
	C330.972717,123.026070 331.004547,122.996132 331.242981,122.981094 
	C331.481384,122.966064 331.927856,122.969543 331.927856,122.969543 
z"/>
<path fill="#BBA993" opacity="1.000000" stroke="none" 
	d="
M330.556152,135.113464 
	C330.735046,135.162735 330.800720,135.325119 330.840210,135.748810 
	C330.485901,135.837204 330.362213,135.576004 330.556152,135.113464 
z"/>
<path fill="#BBA993" opacity="1.000000" stroke="none" 
	d="
M330.444214,125.099167 
	C330.632416,125.172516 330.683899,125.334686 330.655792,125.739014 
	C330.233673,125.803009 330.144104,125.538620 330.444214,125.099167 
z"/>
<path fill="#B2A494" opacity="1.000000" stroke="none" 
	d="
M310.441895,182.977036 
	C309.009369,177.981720 312.814636,176.610138 316.312164,175.292267 
	C317.788971,174.735794 319.598511,175.062363 321.693085,174.996490 
	C320.865173,175.641190 319.664154,176.546005 318.324554,176.860397 
	C314.804260,177.686600 312.348724,179.682297 310.441895,182.977036 
z"/>
<path fill="#B2A494" opacity="1.000000" stroke="none" 
	d="
M340.830872,157.808487 
	C337.521576,157.875305 335.134918,157.244507 336.804810,153.612396 
	C337.198761,152.755539 338.875641,152.253479 340.026276,152.113419 
	C340.403442,152.067520 341.223297,153.634781 341.405365,154.550858 
	C341.607269,155.566498 341.310974,156.681152 340.830872,157.808487 
z"/>
<path fill="#C6B29E" opacity="1.000000" stroke="none" 
	d="
M350.259033,142.413239 
	C350.749603,142.876038 351.087311,143.694183 351.583313,144.727661 
	C351.730225,145.857239 351.718811,146.771469 351.399963,147.851501 
	C350.626160,148.012253 350.159821,148.007187 349.343964,147.994781 
	C349.365021,146.247849 349.735626,144.508209 350.259033,142.413239 
z"/>
<path fill="#B2A494" opacity="1.000000" stroke="none" 
	d="
M310.250702,185.000854 
	C310.023468,184.909439 310.017181,184.704971 310.020325,184.193390 
	C310.177063,184.220108 310.324341,184.553970 310.250702,185.000854 
z"/>
<path fill="#BBA993" opacity="1.000000" stroke="none" 
	d="
M349.417786,155.247009 
	C349.348236,155.077530 349.497437,154.736649 349.879639,154.234436 
	C349.953979,154.407272 349.795288,154.741440 349.417786,155.247009 
z"/>
<path fill="#060505" opacity="1.000000" stroke="none" 
	d="
M339.446716,139.057709 
	C339.262970,137.978394 339.150330,136.566101 339.796448,135.768265 
	C343.520569,131.169479 347.424194,126.716011 351.597534,122.126106 
	C352.168671,125.056580 352.806915,128.117813 352.482971,131.073624 
	C352.319641,132.564148 350.682159,134.361465 349.236847,135.145111 
	C346.283813,136.746155 343.009979,137.755493 339.446716,139.057709 
z"/>
<path fill="#060505" opacity="1.000000" stroke="none" 
	d="
M367.027191,117.990860 
	C366.351562,119.421501 365.675934,120.852142 365.036499,122.636940 
	C362.060852,125.730873 359.049011,128.470642 355.908905,131.327087 
	C353.948090,125.527100 356.254913,120.060669 362.139130,117.629295 
	C364.289703,117.746620 365.658447,117.868744 367.027191,117.990860 
z"/>
<path fill="#C9AA7F" opacity="1.000000" stroke="none" 
	d="
M355.206177,135.688019 
	C354.726532,137.232452 353.972900,138.521606 353.219269,139.810760 
	C352.524475,139.072067 351.829712,138.333389 351.134918,137.594711 
	C352.400696,136.874054 353.666443,136.153397 355.206177,135.688019 
z"/>
<path fill="#C6B29E" opacity="1.000000" stroke="none" 
	d="
M367.185913,117.800537 
	C365.658447,117.868744 364.289703,117.746620 362.525269,117.508987 
	C362.108246,116.958397 362.086884,116.523315 361.915314,115.983978 
	C363.254272,115.582458 364.743439,115.285194 366.622894,115.054565 
	C367.123657,115.950874 367.234161,116.780540 367.185913,117.800537 
z"/>
<path fill="#CBBAAA" opacity="1.000000" stroke="none" 
	d="
M332.132843,122.763794 
	C331.927856,122.969543 331.481384,122.966064 331.258667,122.966652 
	C331.552917,122.411209 332.069885,121.855179 332.863159,121.162872 
	C332.872253,121.537079 332.605042,122.047569 332.132843,122.763794 
z"/>
<path fill="#C6B29E" opacity="1.000000" stroke="none" 
	d="
M297.206360,160.861893 
	C297.100433,160.941589 297.118805,160.524246 297.153625,160.319489 
	C297.434448,160.308487 297.475708,160.530960 297.206360,160.861893 
z"/>
<path fill="#C6B29E" opacity="1.000000" stroke="none" 
	d="
M326.295898,141.784393 
	C326.232788,141.629562 326.412354,141.392456 326.816650,141.050003 
	C326.895142,141.206879 326.727570,141.459381 326.295898,141.784393 
z"/>
</svg>