<?xml version="1.0" standalone="no"?>
<!DOCTYPE svg PUBLIC "-//W3C//DTD SVG 20010904//EN"
 "http://www.w3.org/TR/2001/REC-SVG-20010904/DTD/svg10.dtd">
<svg version="1.0" xmlns="http://www.w3.org/2000/svg"
 width="1408.000000pt" height="768.000000pt" viewBox="0 0 1408.000000 768.000000"
 preserveAspectRatio="xMidYMid meet">

<g transform="translate(0.000000,768.000000) scale(0.100000,-0.100000)"
fill="#000000" stroke="none">
<path d="M0 3840 l0 -3840 7040 0 7040 0 0 3840 0 3840 -7040 0 -7040 0 0
-3840z m8589 2364 c27 -34 26 -54 0 -89 -19 -23 -28 -26 -61 -23 -38 4 -41 1
-121 -87 -45 -49 -138 -151 -207 -225 -250 -272 -416 -455 -424 -467 -5 -10 4
-13 33 -13 29 0 41 4 41 15 0 22 41 55 68 55 14 0 36 -13 53 -31 l28 -30 178
11 178 11 23 29 c32 40 81 42 112 3 23 -30 21 -65 -8 -97 -13 -14 -26 -17 -62
-13 -40 5 -56 0 -150 -50 -395 -207 -753 -540 -984 -912 -75 -122 -158 -290
-186 -376 -23 -73 -89 -208 -122 -250 -15 -19 -29 -25 -59 -25 l-39 0 59 90
c37 55 70 121 87 172 15 46 36 103 46 127 10 24 64 200 119 390 125 434 135
402 -113 345 -153 -35 -173 -42 -176 -61 -5 -31 -38 -56 -73 -56 -28 0 -48
-19 -176 -163 -80 -89 -144 -166 -143 -171 1 -4 97 -41 213 -81 116 -40 213
-74 215 -76 2 -2 -100 -38 -227 -81 -126 -42 -234 -82 -239 -88 -5 -7 -45
-116 -88 -243 l-78 -231 -81 241 -82 240 -237 82 -238 81 153 52 c85 29 192
66 239 82 l86 30 79 239 79 240 75 -220 c41 -121 78 -219 82 -218 4 2 73 74
153 161 137 149 146 161 146 198 0 33 5 43 29 57 l29 16 4 171 5 170 -24 21
-25 21 -236 -109 c-130 -60 -246 -117 -257 -128 -12 -11 -35 -20 -52 -20 -80
0 -253 -61 -338 -120 l-45 -31 0 40 c0 32 5 43 28 60 65 46 250 111 318 111
29 0 43 14 143 134 136 163 380 403 519 509 256 196 569 360 837 439 70 21 76
21 92 6 27 -27 4 -42 -138 -88 -80 -26 -197 -76 -302 -129 -277 -139 -487
-289 -706 -504 -111 -108 -315 -337 -308 -344 2 -2 100 41 218 95 207 96 214
100 220 133 4 18 15 39 25 46 22 16 66 17 81 2 7 -7 70 38 217 158 114 92 232
186 261 208 47 35 54 45 54 75 1 20 8 46 17 58 21 31 77 30 107 -2 l22 -23
174 27 c120 18 176 31 179 40 9 25 51 60 72 60 12 0 30 -4 40 -10 15 -8 41 5
144 74 69 46 165 107 214 136 74 44 88 56 85 74 -3 12 5 33 17 49 29 37 80 38
109 1z m-579 -73 c20 -39 -22 -82 -60 -61 -22 12 -27 49 -8 68 18 18 56 14 68
-7z m393 -412 c20 -27 10 -58 -19 -65 -30 -8 -54 11 -54 40 0 46 48 62 73 25z
m-1425 -211 c27 -27 7 -78 -29 -78 -23 0 -49 38 -41 59 11 31 48 41 70 19z
m-348 -572 c28 -34 -11 -93 -47 -70 -32 20 -39 41 -19 63 22 24 49 27 66 7z
m-889 -271 c-194 -211 -249 -536 -135 -807 105 -252 351 -436 623 -467 185
-20 356 26 526 143 51 35 66 41 102 38 l43 -3 -63 -55 c-71 -62 -199 -132
-302 -164 -97 -31 -272 -38 -378 -16 -242 50 -444 196 -570 411 -78 135 -113
288 -105 463 10 192 93 384 228 521 l65 66 3 -43 c3 -39 -1 -48 -37 -87z
m1317 -157 c26 -26 7 -78 -28 -78 -9 0 -25 9 -35 20 -37 41 24 97 63 58z
m6487 -3765 c23 -60 96 -133 157 -158 27 -11 48 -23 48 -26 0 -4 -21 -14 -47
-24 -60 -23 -133 -96 -158 -157 -11 -27 -23 -48 -26 -48 -4 0 -14 21 -24 47
-23 60 -96 133 -157 158 -27 11 -48 23 -48 26 0 4 21 14 47 24 60 23 133 96
158 157 11 27 23 48 26 48 4 0 14 -21 24 -47z"/>
<path d="M8375 6049 c-318 -207 -324 -212 -318 -240 4 -21 -1 -34 -20 -53 -28
-28 -47 -32 -77 -16 -16 9 -40 -6 -152 -97 -226 -182 -398 -334 -398 -352 0
-13 53 -14 204 -4 l108 6 311 341 c172 187 336 366 366 398 29 32 49 58 45 57
-5 0 -36 -18 -69 -40z"/>
<path d="M7704 5753 c-148 -24 -150 -25 -161 -54 -8 -21 -20 -31 -42 -35 -28
-6 -33 -13 -53 -75 -12 -38 -26 -69 -30 -69 -13 0 -10 22 11 83 18 52 18 67 0
67 -11 0 -513 -409 -518 -422 -4 -11 139 -7 294 8 55 6 61 9 75 38 13 28 20
31 59 31 41 0 50 6 150 94 58 51 179 152 269 224 89 71 162 131 162 133 0 8
-72 1 -216 -23z"/>
<path d="M8147 5295 c-153 -10 -158 -11 -170 -35 -25 -50 -107 -49 -123 2 -6
19 -24 21 -87 10 -33 -6 -58 -30 -211 -197 -166 -183 -172 -191 -162 -218 14
-37 -9 -79 -51 -91 -30 -9 -33 -15 -63 -123 -17 -62 -53 -186 -80 -275 -27
-89 -48 -164 -46 -165 1 -2 26 37 55 86 99 167 236 338 400 502 203 202 378
333 606 455 99 52 100 53 94 57 -2 1 -75 -2 -162 -8z m-504 -336 c17 -23 11
-58 -9 -66 -8 -3 -25 -2 -39 1 -46 12 -27 84 22 86 6 0 18 -9 26 -21z"/>
<path d="M7580 5263 c-148 -10 -166 -14 -175 -36 -6 -12 -20 -26 -31 -31 -25
-11 -34 -70 -34 -212 0 -97 10 -106 57 -50 15 18 90 101 166 185 l138 151 -38
-2 c-21 -1 -58 -3 -83 -5z"/>
<path d="M7062 5225 c-79 -7 -144 -14 -145 -16 -1 -2 -7 -13 -13 -24 -6 -11
-20 -24 -31 -29 -18 -8 -21 -22 -27 -114 -9 -151 -8 -254 3 -250 17 6 421 426
421 437 0 13 -16 12 -208 -4z"/>
<path d="M7135 5018 c-187 -194 -252 -268 -235 -268 12 0 245 53 311 70 27 8
39 17 43 36 4 14 20 33 36 42 l30 17 0 115 c0 63 3 125 6 138 14 50 -31 15
-191 -150z"/>
</g>
</svg>
